<svg xmlns="http://www.w3.org/2000/svg" viewBox="0 0 630.46 731.19"><defs><linearGradient id="linear-gradient" y1="345.94" x2="630.46" y2="345.94" gradientUnits="userSpaceOnUse"><stop offset="0" stop-color="#14b8a6"/><stop offset="1" stop-color="#06b6d4"/></linearGradient><clipPath id="clip-path" transform="translate(-187.54 -147.19)"><path d="M818 493.13c0 174.09-141.13 315.23-315.23 315.23S187.54 667.22 187.54 493.13s136.14-365.29 310.24-365.29S818 319 818 493.13z" fill="none"/></clipPath><style>.cls-17,.cls-18,.cls-5{fill:#fff}.cls-6{fill:#ffc9ab}.cls-9{fill:#fcf0de}.cls-10{fill:#e23750}.cls-11{fill:#e8c63a}.cls-15,.cls-16,.cls-21,.cls-22,.cls-23{mix-blend-mode:multiply}.cls-16{opacity:.22}.cls-15{fill:#775238}.cls-16{fill:#481f3d}.cls-17{opacity:.76}.cls-18{opacity:.35}.cls-19{fill:#c19d56}.cls-20,.cls-22{fill:#3a1e34}.cls-21,.cls-23{fill:#8b5e3c}.cls-22{opacity:.71}.cls-23{opacity:.61}</style></defs><g style="isolation:isolate"><circle cx="315.23" cy="345.94" r="315.23" fill="url(#linear-gradient)" id="BG"/><g clip-path="url(#clip-path)" id="Grandma"><path class="cls-5" d="M494.37 878.38a465.18 465.18 0 01-50.71-2.84c-78.66-8.68-138.93-35.14-151.27-40.88h-.23a10.53 10.53 0 01-9.77-14.43c3.73-9.33 6.8-50.76 8.63-75.51 1-13.25 1.83-24.64 2.65-31.52 2.64-22.21 25.06-72.25 52.82-97.09 23.63-21.14 54.67-33.66 60.64-36l2.84-1.7v-.56c-2.48-1.47-4.94-3-7.34-4.7l-1.88-1.32c-.79-.56-1.47-1.07-2.17-1.61q-2-1.59-4-3.36a84.57 84.57 0 01-6.79-6.92 123.27 123.27 0 01-10.47-13.93 149 149 0 01-7.69-13.33c-.31-.59-.61-1.19-.9-1.79a31.18 31.18 0 01-4.55 5.19 28.48 28.48 0 01-6.78 4.69 24.68 24.68 0 01-8.79 2.53c-.66.06-1.37.09-2.06.09a23 23 0 01-7.84-1.39 24.38 24.38 0 01-7.92-4.87 17.28 17.28 0 01-1.28-1.25l-.24-.25a10.11 10.11 0 01-.76-.84l-.69-.81-.24-.29-.44-.6-.49-.67a17.07 17.07 0 01-1-1.54l-.24-.41-.07-.13a26.46 26.46 0 01-2.95-8.16 31.51 31.51 0 01-.54-6.61c-.59-.47-1.17-.94-1.73-1.42-29.74-25.22-34.64-72.7-35.43-86.39a55.48 55.48 0 01-6.34-15.33 103.72 103.72 0 00-14.61-8.75 10.8 10.8 0 01-6-9.41 10.55 10.55 0 018.16-10.38 25.23 25.23 0 006.53-2.58c-.06-1.54-.29-3.85-.47-5.68-.56-5.8-1.27-13.15-.51-20.93a38 38 0 01-16.45-7.35 10.53 10.53 0 013.3-18.29c2.86-.95 11.9-4.83 15.26-9.85 2-3.06 4.46-8.51 6.8-15.24a52.45 52.45 0 01-7.75-3.19 11 11 0 01-5.78-7.3 10.54 10.54 0 016.17-11.94c3.81-1.62 10.36-5.41 12.33-8.42.23-.38.92-1.7 1.48-2.76 5.73-10.9 21-39.84 47.55-66.77 34.23-34.65 73.53-52.22 116.79-52.22a166.41 166.41 0 0123.58 1.72c6.22-1.94 21.5-5.9 42.36-5.9 30.35 0 75.48 8.71 118.19 50.18a21.86 21.86 0 0011.85 4.9 10.53 10.53 0 018.54 15c.54 0 1.09.07 1.64.07a15.16 15.16 0 004.48-.65 10.88 10.88 0 013.1-.46 10.09 10.09 0 012.51.31 7 7 0 019.35 8.87l-1.22 3.23c-.16.44-.35.89-.53 1.33a34.58 34.58 0 01-8.74 15.81c5.77 8.18 14.27 22.95 24.45 48.85a7 7 0 004.87 1.84 11 11 0 002.69-.35 10.94 10.94 0 012.49-.3 10.53 10.53 0 019.06 15.89A40.35 40.35 0 01693.46 326c0 1.68.06 3.35.14 5 .28 2.21.63 4.37 1 6.42a29.13 29.13 0 002.08 6.74 44 44 0 007.74 4.27 10.48 10.48 0 016.1 6l5.48 2.67-6.77 7.64c-.36.41-.72.8-1.1 1.19a54.68 54.68 0 01-15 12 28.7 28.7 0 002.38 7.1 10.53 10.53 0 01-4.12 20.22 69.89 69.89 0 01-7.53-.5 214.65 214.65 0 011.43 24.41c0 20.73-3.06 35.73-9.87 48.07a43 43 0 01.27 15.09c-1.81 9.63-8.52 16.35-16.33 16.35h-.27a11.69 11.69 0 01-1.84-.18l-.33 1a108.64 108.64 0 01-8.63 18.62 154.07 154.07 0 01-11.88 17.3c-1 1.29-2.07 2.62-3.26 4.09-1.05 1.3-2.27 2.74-3.58 4.23a84.73 84.73 0 01-8.59 8.25c-2.77 2.32-5.57 4.44-8.27 6.5l-3.29 2.52c.51 1.14 1 2.37 1.5 3.67a94.22 94.22 0 0015.81 3.58c8.72 1.1 39.39 8.84 68.24 62 23.32 43 54 128.51 55.22 131.87l.23.61.06.36c0 .17.08.33.11.48s.09.4.13.66v.12a7.62 7.62 0 01.07 1.06 10.29 10.29 0 01-.12 2 7.26 7.26 0 01-.2 1 8 8 0 01-.29.9 10.46 10.46 0 01-.86 1.82 9.69 9.69 0 01-.58.9c-.18.25-.38.47-.51.62l-.23.35-.45.45-.16.14c-38.68 34.63-82.58 60.15-130.48 75.85l-.41.14c-8.26 2.69-16.68 5.11-25 7.19a401.62 401.62 0 01-97.13 11.61z" transform="translate(-187.54 -147.19)"/><path class="cls-6" d="M653.38 441.47c-.07-8.27-.41-16.72-.94-26 10.78-6.22 16.92-18 19-22.59a188.68 188.68 0 013.38 36.23c0 19.77-2.86 34.46-10.53 46.29-1.39-5.22-3.52-9.25-5.23-9a31.31 31.31 0 00-6.41 1.87c.6-9.27.82-17.92.73-26.8zM571.06 600.25a41.4 41.4 0 001 6.84c-11.19 7.89-27.79 13.59-54 12.73-50.08-1.63-70.79-38.73-70.79-38.73 7.24 2 12.84 3.61 16.46 7 8.85 8.32 38 22.35 70.19 17.15 18.24-2.94 30.32-9.38 39.54-16.58-.16.2-2.9 3.45-2.4 11.59z" transform="translate(-187.54 -147.19)"/><path class="cls-6" d="M652.44 415.51s6.15-30.29 1.47-57.71c0 0-7.29 1-10.92 0 0 0 9.45-7.28 6.33-21.84S640 318.81 640 318.81l-2.59 7.27s-13-23.39-25.48-35.87v14s-23.4-28.08-43.67-40.55a80.94 80.94 0 008.32 13s-24.95 4.15-35.35-31.72c0 0 1.8 21.32-36.53 32.75l15.73-20.79s-12.47-.52-31.71 13.52-21.84 21.31-21.84 21.31-7.27-20.79 0-33.27c0 0-32.23 22.88-32.23 49.39 0 0-14.56-2.08-15.07-21.84 0 0-26.52 37.44-33.8 46.79s-7.28 25-7.28 25l-5.2-9.36s-4.68 6.76-6.75 18.72S345.19 430.07 353 455a36.08 36.08 0 01-25.47-9.88v7.27s-9.88-3.63-16.12-20.27v10.4a81.14 81.14 0 01-16.29-18c0 1.17 1.93 64 38.62 86.49 1.62-8.1 6.39-15.62 8.86-17.31 4.16-2.84 9.36 4.82 9.36 4.82s-7.21 10.78-6.34 17.88a58.53 58.53 0 0016.48 2.6 74.3 74.3 0 0011.65-.76l.47-.23c7.72 16.19 18.86 34.79 32.57 44.63a112.44 112.44 0 0016.31 9.75c.73.36 1.45.7 2.17 1a142.37 142.37 0 0022 7.67c7.24 2 12.84 3.61 16.46 7 8.85 8.32 38 22.35 70.19 17.15 18.24-2.94 30.32-9.38 39.54-16.58a135.64 135.64 0 0013.8-12.78c1.31-1.33 2.58-2.64 3.84-3.9 1.55-1.55 3.07-3 4.57-4.29 10.07-8.88 19.06-13.38 27.66-23.78 9.88-12 24.71-30.81 27.55-56.15.48-4.29.88-8.38 1.22-12.34.2-2.42.38-4.78.53-7.11.62-9.28.84-18 .75-26.85-.07-8.23-.38-16.68-.94-25.92z" transform="translate(-187.54 -147.19)"/><path d="M295.11 424.58c-3.42-5.28-6.26-11.4-7.11-17.91 0 0-6.23-5.72-19.75-12.48 0 0 13.52-3.12 14.55-9.88s-4.15-24.43 1.56-39.51c0 0-13 2.08-22.87-5.72 0 0 14.56-4.68 20.8-14s11.43-28.6 11.43-28.6-9.87-1.56-16.63-5.19c0 0 12.47-5.21 17.15-12.48s60.83-134.13 181.44-114.9c0 0 79.55-29.63 152.33 41.07a31.43 31.43 0 0018.19 7.8 40.49 40.49 0 01-7.8 9.36s13 8.83 26.52 4.68c0 0-1 9.88-13.52 17.68 0 0 12 8.83 30.16 55.62 0 0 6.24 9.46 19.23 6.29 0 0-5.19 8.79-17.67 12.43 0 0-1.56 27.17 5.19 32.31a53.21 53.21 0 0012.48 7.2s-7.8 9.87-19.23 13c0 0 1.56 21.32 9.87 23.4 0 0-10.92 0-19.23-3.64 0 0-.26.69-.78 1.84-2.06 4.55-8.2 16.37-19 22.59 0 0 6.15-30.29 1.47-57.71 0 0-7.29 1-10.92 0 0 0 9.45-7.28 6.33-21.84s-9.3-17.18-9.3-17.18l-2.59 7.27s-13-23.39-25.48-35.87v14s-23.4-28.08-43.67-40.55a80.94 80.94 0 008.32 13s-24.95 4.15-35.35-31.72c0 0 1.8 21.32-36.53 32.75l15.73-20.79s-12.47-.52-31.71 13.52-21.84 21.31-21.84 21.31-7.27-20.79 0-33.27c0 0-32.23 22.88-32.23 49.39 0 0-14.56-2.08-15.07-21.84 0 0-26.52 37.44-33.8 46.79s-7.28 25-7.28 25l-5.2-9.36s-4.68 6.76-6.75 18.72S345.19 430.07 353 455a36.08 36.08 0 01-25.47-9.88v7.27s-9.88-3.63-16.12-20.27v10.4a81.14 81.14 0 01-16.3-17.94z" transform="translate(-187.54 -147.19)" fill="#f2e2d3"/><path d="M655 485.36l-4.06 2.41c.48-4.29.88-8.38 1.22-12.34a40.83 40.83 0 012.84 9.93z" transform="translate(-187.54 -147.19)" fill="#a7a9ac"/><path class="cls-9" d="M600.85 577.8a51.06 51.06 0 011.68 5.11c1.56 5.76 2.61 14 0 30.67-.56 3.58-1.27 7-2.1 10.37-6.68 26.93-20.83 46.06-21.29 56.7-.28 6.51 2.37 11 5.75 18.64 1.19 2.66 2.46 5.7 3.73 9.33A132.59 132.59 0 01593.7 728c5.71 30.14 13.5 43.06 19.74 121.48-38.11 12.44-76 17.65-111.74 18.33v-1s-1-21.84-3.65-48.35a185.91 185.91 0 01-.69-21.52c.44-22.82 3.92-49.21 7.32-74.14 4.53-33.28 0-42.11 0-42.11-86.81-23.17-92.92-91-92.92-91l7.8-4.67c1.13-7.92 2.55-11.17 3.56-12.6.73.36 1.45.7 2.17 1a142.37 142.37 0 0022 7.67s20.71 37.1 70.79 38.73c26.25.86 42.85-4.84 54-12.73a41.4 41.4 0 01-1-6.84c-.5-8.14 2.24-11.39 2.39-11.57a135.64 135.64 0 0013.8-12.78c1.31-1.33 2.58-2.64 3.84-3.9 1.55-1.55 3.07-3 4.57-4.29a49.39 49.39 0 015.17 10.06zM580.68 512.45s-21.93 32.72-55.75 32.76-50.61-24.85-50.61-24.85c17.78 2.03 66 5.74 106.36-7.91z" transform="translate(-187.54 -147.19)"/><path class="cls-10" d="M666.42 827.18a349 349 0 01-53 22.26C607.2 771 599.41 758.1 593.7 728a132.59 132.59 0 00-5.08-19.34c55-52.86 39.68-119 39.68-119l.1-.44c12.8 3 35.72 16.24 57.32 56.08 23.39 43.15 54.58 130.49 54.58 130.49a361.17 361.17 0 01-73.88 51.39z" transform="translate(-187.54 -147.19)"/><path class="cls-10" d="M628.4 589.22l-.1.44s15.31 66.1-39.68 119a117.24 117.24 0 00-3.73-9.33c-3.38-7.62-6-12.13-5.75-18.64.46-10.64 14.61-29.77 21.29-56.7.83-3.33 1.54-6.79 2.1-10.37 2.61-16.63 1.56-24.91 0-30.67a110.13 110.13 0 0022.88 5.76c.92.08 1.92.29 2.99.51zM504.66 680.65s4.53 8.83 0 42.11c-123.07-30.67-126.94-116.37-126.94-116.37a224.66 224.66 0 0134-16.72s6.13 67.81 92.94 90.98z" transform="translate(-187.54 -147.19)"/><path class="cls-10" d="M376.77 853.17c-51.47-12.7-84.61-29-84.61-29 6.24-15.6 9.36-87.87 12-109.7s25-68.63 49.39-90.49a161.42 161.42 0 0124.21-17.57s3.87 85.7 126.94 116.37c-3.4 24.93-6.88 51.32-7.32 74.14a185.91 185.91 0 00.69 21.52c2.61 26.51 3.65 48.35 3.65 48.35v1c-46.99.88-90.16-6.04-124.95-14.62z" transform="translate(-187.54 -147.19)"/><path class="cls-11" d="M664.27 475.44c1.28 4.78 1.93 10.54 1.12 14.93-1.51 8-8.27 10.94-9.31 3.39-.44-3.26-.73-5.91-1.13-8.4a40.83 40.83 0 00-2.84-9.93c.2-2.42.38-4.78.53-7.11a31.31 31.31 0 016.41-1.87c1.71-.26 3.84 3.77 5.23 9zM345.61 516.46A58.53 58.53 0 00362.1 519v.46c-3.9 10.81-16.9 18.22-25.59 7.3-3.51-4.41-3.87-10.19-2.77-15.69a51.59 51.59 0 0011.87 5.39z" transform="translate(-187.54 -147.19)"/><path class="cls-11" d="M352 498.58s-7.21 10.78-6.34 17.88a51.59 51.59 0 01-11.88-5.39c1.62-8.1 6.39-15.62 8.86-17.31 4.11-2.84 9.36 4.82 9.36 4.82z" transform="translate(-187.54 -147.19)"/><path class="cls-9" d="M569.31 417.89a10.56 10.56 0 01-6.58-12.69c2.46-9.19 8.78-23.8 24.72-29.92 24.12-9.25 36.43 3.28 44.77 27.62a46.28 46.28 0 01-21.78 14.82c-11.27 3.66-29.39 4.34-41.13.17zM479.65 426.62c6.05-2.76 12.08-8.44 9.57-13.42-4.36-8.64-12.18-25.62-32.7-28.08-25.81-3.09-47.87 13-54.49 38.59 0 0 10.5 8.69 28.86 10.69 14.33 1.6 34.99-1.51 48.76-7.78z" transform="translate(-187.54 -147.19)"/><path d="M531.68 516.3a12.64 12.64 0 00-10.43-3.07c-6.2.78-38.93 5.48-51 6-1 0-1.75.07-2.36.07-8.45 0 73.46 10.77 120.27-9.66 0 0-44.57.8-49.18 2.38a21.27 21.27 0 00-7.3 4.28z" transform="translate(-187.54 -147.19)" style="mix-blend-mode:multiply" opacity=".33" fill="#a82054"/><path d="M472.69 521.27s8.22 35.17 53.18 34.35c48.27-.87 57-43.22 57-43.22l-3.21 1.52s-13.12 19.73-40.33 29.08-55-10.16-64-21.29z" transform="translate(-187.54 -147.19)" style="mix-blend-mode:multiply" fill="#dd4571" opacity=".33"/><ellipse cx="531.15" cy="551.12" rx="8.11" ry="1.36" transform="rotate(-2.87 -2501.164 4220.148)" opacity=".22" fill="#fff"/><path class="cls-15" d="M482.79 616.12s-1.2-3.91-7.72-3.74c0 0 .22 5.89 7.41 5.8 0 0-1.24 4.74 4.45 8.22 0 0 1.38-3.93-2-8.68 0 0 1.29-1.65-.37-2.42-1.2-.54-1.77.82-1.77.82zM444 638.62s-3.3-2.42-8.41 1.61c0 0 3.69 4.59 9.4.22 0 0 1.84 4.53 8.48 3.91 0 0-1.24-4-6.82-5.73 0 0 .05-2.1-1.74-1.72-1.3.27-.91 1.71-.91 1.71zM481.31 664.1s-1.2-3.92-7.72-3.74c0 0 .22 5.88 7.41 5.8 0 0-1.24 4.73 4.45 8.21 0 0 1.38-3.92-2-8.68 0 0 1.29-1.65-.37-2.41-1.2-.54-1.77.82-1.77.82zM426.91 585.24s-1.19-3.92-7.71-3.75c0 0 .22 5.89 7.41 5.8 0 0-1.25 4.74 4.45 8.22 0 0 1.38-3.93-2-8.68 0 0 1.29-1.65-.37-2.41-1.2-.54-1.78.82-1.78.82zM546.66 645.45s-3.87 1.34-3.47 7.84c0 0 5.87-.42 5.54-7.6 0 0 4.77 1.07 8-4.75 0 0-4-1.24-8.6 2.34 0 0-1.7-1.23-2.4.46-.45 1.19.93 1.71.93 1.71zM573.08 657.77s-3.87 1.33-3.47 7.84c0 0 5.87-.43 5.54-7.61 0 0 4.77 1.08 8.05-4.74 0 0-4-1.24-8.6 2.34 0 0-1.7-1.23-2.4.46-.5 1.19.88 1.71.88 1.71zM591.36 580.72s-2.81-.55-5 5.41c0 0 3.66 2.26 6.18-4.28 0 0 2.43 3.1 6.59-.61a5.36 5.36 0 00-6-1.77s-.54-1.85-1.6-.67a1.72 1.72 0 00-.17 1.92zM507 753.94s-4-.72-6.84 5.16c0 0 5.34 2.49 8.53-4 0 0 3.65 3.27 9.35-.22 0 0-2.87-3-8.66-2.14 0 0-.88-1.9-2.31-.77-1.07.84-.07 1.97-.07 1.97zM551.83 825.19s-4-.72-6.84 5.16c0 0 5.33 2.49 8.53-4 0 0 3.65 3.26 9.34-.22 0 0-2.86-3-8.65-2.15 0 0-.88-1.89-2.31-.77-1.02.85-.07 1.98-.07 1.98zM547.48 695s-4-.72-6.85 5.16c0 0 5.34 2.49 8.54-4 0 0 3.65 3.26 9.34-.22 0 0-2.87-3-8.65-2.15 0 0-.88-1.89-2.32-.77-1.01.81-.06 1.98-.06 1.98zM592.38 791.52s-2.53 3.22 1.34 8.47c0 0 4.7-3.55.52-9.4 0 0 4.6-1.68 4.2-8.35 0 0-4 1.12-6 6.63 0 0-2.09-.11-1.77 1.69.27 1.27 1.71.96 1.71.96z" transform="translate(-187.54 -147.19)"/><path class="cls-16" d="M361.13 193.51a355.47 355.47 0 00-59.61 88.61l14-1.11a127.73 127.73 0 00-23.76 47.39l7.6-8.81a148.14 148.14 0 01-4.67 31.19L305 334.51a120.2 120.2 0 01-10.06 37.25l14.39-7.76a42.49 42.49 0 008.17 31.78c2.17-9.45 7.4-17.13 14.95-23.21l-1.51 18.73a80.28 80.28 0 0128.74-49.2l-2.24 9.55a385.91 385.91 0 0151.45-51.2c-14 16.5-28.56 34.25-31.52 55.68a15.21 15.21 0 00-4.82-8 443.37 443.37 0 00-19.5 67.7c-2.65 13.07-4.68 26.84-.72 39.58a62.75 62.75 0 01-13.33-2.27c-4.17-1.35-8.14-3.75-10.57-7.41.33 2.61 0 4.62.35 7.22-7.6-2.77-14.38-9.29-16.57-17.08-.11 2.34-.82 4.2-.92 6.54-5.43-2.1-10.07-6.89-13.37-11.67s-5.62-10.17-7.9-15.52l-3.59-8.37c-2.75-6.42-11.35-9.35-18.05-11.33l.87-1.07c6.08-1.15 9.9-4.49 12.8-10-2.39-13.26-1.71-27.24.86-40.48a26 26 0 01-19.15-5.27c16.15-7.61 26.9-23.62 29.06-41.35-4.75-1.22-10.22-4.57-14.06-7.62 13.08-5.06 19.68-19.41 26.79-31.5a234.1 234.1 0 0155.58-64.72zM490.37 188.58l27.37-1.28a47.78 47.78 0 00-21.91-7.23 76 76 0 0119.59-3 53.61 53.61 0 00-22-3.31l20.8-5.64c-9.55-.8-19.12-.17-28.67.36-7 .39-13.89.33-20.67 2.37-7.39 2.23-14.48 4.82-21 9.1a62.19 62.19 0 00-9 7.25c-1.78 1.74-4.93 7.39-7 8.21a192.38 192.38 0 0127.58-8.41 204.44 204.44 0 01-20.39 28.18 69.14 69.14 0 0025.26-19.57 38.25 38.25 0 00.8 17.95 31.47 31.47 0 0120.66-22.62c-2 2.86-8.48 10.79-10.43 13.65 8.09-5.85 18.44-10.14 33.05-11.05-1.41-.77-12.63-4.22-14.04-4.96zM611.4 289.84a73 73 0 0133 22l.3-6.17A84.14 84.14 0 01659.94 334l1.9-10.13a177.35 177.35 0 015.89 41.3l3.17-5.06-1.9 20.69 2.86-6.1c3.14 15.47-4.56 32.53-18.23 40.42 2.77-19 2.22-37.93-.35-56.92a15.58 15.58 0 01-9.61.67c8.52-11.93 7.58-29.71-2.15-40.68-1.39 2.49-3 4.84-4.35 7.33-6.99-13.17-16.05-24.4-25.77-35.68zM419.2 285.7a30.77 30.77 0 009.44 10l3.6-10.83a11.36 11.36 0 001.36 4.59 45.57 45.57 0 0114.8-16.17 133.2 133.2 0 00-15 34.73 22.05 22.05 0 01-14.2-22.32zM467.62 259.49a24.55 24.55 0 00.39 16.42 50 50 0 0120.76-20.29l-4.08 7.45a374.64 374.64 0 0141.41-18.86l-1.43 7.91a33.9 33.9 0 0014.87-20.64 21.22 21.22 0 008.93 14l1.15-6.23A24.7 24.7 0 00560.16 258l-.17-8.3a100.82 100.82 0 0129.33 28.2l-20.2-13.65 7.42 12.13a34.21 34.21 0 01-34-30.51c.75 5.84-3 11-7.06 15.29A50.24 50.24 0 01506.82 276a137.61 137.61 0 0014.38-19.13c-21.14 5-41 16.52-54.75 33.33-2.74-6-3.3-12.61-2.89-19.19a33.56 33.56 0 011.06-7.61c.74-2.5.85-2.5 3-3.91z" transform="translate(-187.54 -147.19)"/><path class="cls-16" d="M379.2 242.16c-16.33 19.2-24.27 24.24-46.4 36.31L343 282l-3.12 14.38a24.28 24.28 0 0118.74-9.83 43.05 43.05 0 00-1.26 16.64l5.83-11.27a24.69 24.69 0 0019.18 12.87 15.16 15.16 0 01-5.4-12.48l-1.61 2.37a20.15 20.15 0 01-5.74-16.88 41.84 41.84 0 01-18.43-.13 75.89 75.89 0 0028.05-35.49M643.62 358.87s2.92-16.81-1.67-28.44c0 0-6.23 6.41-6 5.19s-8.19-20.08-17.73-27.58l-6.29 8.69s-12.8-19.37-31.32-34a45.24 45.24 0 01-40.73-18.13s-25.63 16.5-35.23 13.12c0 0 21.42-5.71 27.16-13.12s10.76-18.76 10.76-18.76 4.72 32.9 34 30.51l-7.42-12.13s29.38 21.17 42.77 40l-.49-14.41s22.64 29 25.72 35.68l4.35-7.33s18.84 19.61 2.12 40.71zM511.81 264.61s-26.56 13.51-48.37 37.75c0 0-5.49-16.11-6.92-26.83 0 0-15 13.78-19.49 41.2 0 0-12.55-3.43-20.55-14.52 0 0-27.49 36.78-30.22 48.72s-3.93 21.3-3.93 21.3l-8.9-7.23s-23.45 71.44-21.1 90.41c0 0-6-39.75 20.22-107.28l5.91 9.67s.05-12.85 6.12-22.18 34.62-49.92 34.62-49.92.89 17.8 14.19 22.34c0 0 5.29-37 32.3-47.22 0 0-5.22 17.17 1.15 30.95 0 0 26.32-35.7 54.36-34.94z" transform="translate(-187.54 -147.19)"/><path class="cls-16" d="M352.33 455.41s-12.86 3.18-19.12 2.92-19.92-10.85-31.78 4.16c0 0-8-17-6.25-36.29 0 0 7.81 11.22 16.15 16.21l-1.49-11.24s8.82 16.77 19 21.78l-2.6-8.6s12.82 11.97 26.09 11.06z" transform="translate(-187.54 -147.19)"/><path class="cls-16" d="M328.09 457s-9.79 9.72-4.47 21.13 22.53 13.94 32.25 12.68c0 0-1.47-14.28-13-24S328.09 457 328.09 457zM347.5 517.29l11.5 1.38-3.1 5.79s-7.75 1.41-8.4-7.17zM347.5 494.11s-14.46 15-6.4 27.82c0 0 0-15 9.54-25zM656.06 466.44s2.63 15.88 4.06 21.33a15.73 15.73 0 01-1.2 10.37l-3.22-7.29-3-6.86-.5-9.41zM549.57 454.57s10.59 20.24-2.4 40.48c0 0 5.13-10.39 10.39-12s6-7.17 5.47-10.7-2.74-13.3-13.46-17.78zM498 474.09a51 51 0 00-16.9 10.76c-7.28 7.34-25.68 20.39-37.15 22.57 0 0 6.46 27.69 13.75 37.16 0 0-17.31-17.56-18.92-39.78 0 0 12.21-2.54 15.84-6.66 0 0 13.65-10.59 19.24-15.85 0 0 21.9-12.49 30.43-15.85a60.93 60.93 0 00-6.29 7.65zM563 470.4s14.73 14 35.57 11.89c0 0 11.78 16.45 6.65 42.12a59.38 59.38 0 00-2.44-47s-27.83 1.49-40.44-13.06z" transform="translate(-187.54 -147.19)"/><path class="cls-16" d="M522.13 494.11a40 40 0 01-8.69-6.35c-4.66-9.5-4.53-16.43-4-30.72 1.26-35.78-3.13-55.76-3.13-55.76h-3.22v21.56c1.6 14.11-7.2 47.56-7.2 47.56-2.48 2.1 5 .51 4.9 2.79L497 481.6c4.3 18.13 12 13.45 15.59 13.45s8.4 4.87 14.3 7C542 507.42 548.25 491 548.25 491s-12.25 10.68-26.12 3.11z" transform="translate(-187.54 -147.19)"/><path class="cls-16" d="M506.28 408.89s27.5-5.39 40.89-.36v-7.8s-22.25-8.23-40.89.55zM407.08 425.67c1-2.55 13.1-22.2 34.11-27.72 28.3-7.45 49.71 19.17 49.71 19.17s-13.25-34.58-39.58-32-43.67 18.23-49.32 38.59zM561.25 408s11.31-21.46 37.84-23.25c23.74-1.6 28.14 21.22 28.14 21.22l5-3.06s-.64-31.19-32.19-29.12S561.25 408 561.25 408zM370.94 509.1s-12.68 2.87-23.6-1.68c0 0-4.68 4.43.16 9.87 0 0 15.85 3.8 26.72.72zM362.09 487.77s33.21 69.55 87.18 81.89l8.8 13s-54.41-5.23-74.65-47.44zM576.8 516.14s-44.17 12.4-85.18 10.22c0 0 4.82 8.21 6.14 12.16 0 0-14.55-3.55-17.46-9a65.55 65.55 0 00-6-9.2s78.4 5.31 103.51-7zM552.35 557.79a37.14 37.14 0 01-23.09 15.62c-9.81 2.05-21.13-6-24.6-14 0 0 7.52 7.09 20.59 6.57s27.1-8.19 27.1-8.19z" transform="translate(-187.54 -147.19)"/><path class="cls-16" d="M567.28 516.46s-5.07 13.57-9.85 15.67c0 0 13.38-7.9 18.1-18.1zM622.49 466.44s-8.76 12.58-17.8 15.14l-1.88-4.15s15.34-3.53 19.68-10.99zM428.29 504.68s7.91 2.83 10.53 2.74v-2.62s-7.31 1.13-10.53-.12zM411.86 520.6s7.77 8 13.41 14.61 13.55 18.07 13.55 18.07-23.01-19.99-26.96-32.68zM459.58 559.83s14 11.3 19.09 14.2 18.52 13.71 21.45 14.64c0 0-16.15-6.25-23.2-10.7s-17.34-18.14-17.34-18.14zM602.23 544.58s-.6 7.27-1.06 11.81c0 0 15.3-9.31 21.66-14.55 0 0-16.2 19.13-29.51 27.76l3-7z" transform="translate(-187.54 -147.19)"/><path class="cls-16" d="M571.9 591s-1.15 11.39.19 16.12c0 0-22.32 14.7-46.22 12.79s-60-3-75.08-35.74l-1.52-2.49 8.8 1S507.2 630.54 571.9 591z" transform="translate(-187.54 -147.19)"/><path class="cls-16" d="M592 572.1s3.53 13.59-11.6 28.31l-8.27 6.68s-2.89-11.25-.19-16.12S592 572.1 592 572.1zM440.46 579.11s8.77 15.43 11.89 26c0 0-6.78-11.22-10.15-14.16 0 0-12.28 22.78-5.06 33.51 0 0-9.78-7-14.62-22.68 0 0 13.07 39.62 38.61 58.55 0 0-44.15-28.13-49.27-69.71l7.68-5.65 3.52-12.54zM459.94 637.89s11.13 14.68 22.24 20.34 38.13 3 45.19.93c0 0-20.43-2.31-36-6.11s-31.43-15.16-31.43-15.16zM602.81 586.94c-.93.91-7.43 25.4-33.23 43.56 0 0 22.14-13.82 25.18-14.1s-2.24 15-4.77 19.9-15.53 29.7-16.54 39.27 0 31.66 5.67 44l6.68-18.22s-8.29-14.28-7.51-20.71 11.2-26.64 11.2-26.64 9.18-22.8 10.54-28.49 3.54-27.7 4.08-29.94-1.3-8.63-1.3-8.63zM580.54 715.7s3.21 31.23 11 49.75 5.25 28.08 6.91 42.7 5.94 44.11 5.94 44.11l10.94-2.39s-10.37-73.2-13.49-86.36-11-54.18-15.25-61.45zM650.22 709.79s12.88 11.6 18.92 25.25a120.94 120.94 0 016.63 14.09c2.93 7.55.59 34.84 3.32 43.42s18.59 16.19 18.59 16.19L666 826.87s1.83-53.23 1.69-66.29-12.23-43.1-17.47-50.79z" transform="translate(-187.54 -147.19)"/><path class="cls-16" d="M671.41 711.41s6.51 14.08 2.54 40.25c0 0-6.48-9-6.23-9.6s3.05-21.58 3.69-30.65zM506.65 699.18s-6.92 81.08 2.76 100.81A227.73 227.73 0 01524 838.78s-13.62-15.27-19.72-29.72c0 0 8.79 32.15 9.86 40.38a104.28 104.28 0 003.93 16.81l-16.37.52s-4.21-47.25-5.46-58.75 2-41.59 2-41.59 8.42-63.01 8.41-67.25z" transform="translate(-187.54 -147.19)"/><path class="cls-16" d="M374.39 608.43s2.28 35.83 28.26 61.82 65.26 53.81 102.42 53.68c0 0-60.06-18.79-78.78-36.62s-43.33-34.41-49-81z" transform="translate(-187.54 -147.19)"/><path class="cls-16" d="M410.08 589.22c.35.95 15.78 64.9 37.18 87.52s57.4 45.5 57.4 45.5-78.22-17.45-105.5-63.18c0 0-28.71-30-21.83-52.72.34-1.12 32.75-17.12 32.75-17.12zM580.54 675.78c.32-.65 38.56-23.53 47.43-39.48 0 0-10.19 49.81-39.26 70.6 0 0-5.61-11.82-7.62-16.17s-1.76-12.54-.55-14.95z" transform="translate(-187.54 -147.19)"/><path class="cls-16" d="M379.09 605.13s-44.69 69.24-49.41 117.11c-6.78 68.61-6.06 111-6.06 111l-30.07-6.67s7.9-44.6 6.22-58.25 4.64-56 10.28-75.66 43.01-76.56 69.04-87.53zM359.55 746.5s3.71 53.43 2.54 67.29-6 33.83-6 33.83l20.67 5.55s-2.41-35.24.82-47.28 14.35-37.33 14.35-37.33A102.65 102.65 0 00377.72 783a107.46 107.46 0 00-18.17-36.5z" transform="translate(-187.54 -147.19)"/><path class="cls-16" d="M379 813.77S423.7 866 499 866.9c0 0-93.31.85-122.3-15.69zM609.43 813.79s41.86-2.91 58.29-25.92l-1.69 39-50.69 23zM412.33 446.79s36.82 8.3 68-3.5c0 0-17.21 13.38-37.49 13.75s-30.51-10.25-30.51-10.25zM573.46 427.81s31.8 7.25 58.19-5c0 0-11.53 11-26.39 12.22s-26.89-2.32-31.8-7.22z" transform="translate(-187.54 -147.19)"/><path class="cls-16" d="M359.76 408.37l17.92 6.55s1.17 27.14 16.58 42.13 42.16 22 64.95 17 37.57-26 40.71-39.49c0 0-13.64 33.39-56.73 32.3s-57.32-27.14-60.19-57.09zM545 419.79s1.09 12.68 14.73 26.32 44.06 16 66.68 4.53c17.42-8.83 21.38-24.74 22.92-33.7 0 0-7.7 23.62-21.56 29-25.69 9.94-55.74 8.56-69.29-11.32s-8.95-33.32-8.95-33.32zM489.8 373.78s20.45 18.57 10.12 55.3c0 0-6.14-32-18.78-41.08l11 3.81z" transform="translate(-187.54 -147.19)"/><path class="cls-16" d="M551.51 421.32c.78 1.62 3.27-25.38 12.18-36.2l-6.12 2.88s15.12-15.77 22.55-21.27c0 0-20.94 5.28-27.77 17.23 0 .04-5.35 28.04-.84 37.36zM557.89 309.93l-64.67 6.68c9.78-5.73 21.48-6.92 32.76-8 10.67-.97 21.69-1.94 31.91 1.32zM509.77 329.79a50.65 50.65 0 0142.11-3.13zM534 359a15.92 15.92 0 002.09 11.74A55 55 0 01543 345c-3.84 4.09-7.83 8.49-9 14z" transform="translate(-187.54 -147.19)"/><path class="cls-16" d="M570.09 358.87s-22.92 5.95-27.1 39.89l6 .82s.44-17.78 21.1-40.71z" transform="translate(-187.54 -147.19)"/><path class="cls-17" d="M484.83 162.47c24.67-5.22 50.7-.91 74 8.65s44.28 24.17 63.95 39.95l-10.43-.37a56.25 56.25 0 0115.93 8.78l-12.21-1.1a73.61 73.61 0 0130.31 20.69l-7.21-.33 9.1 9.62c1.68 1.78 3.41 4.32 5.14 6a36.3 36.3 0 016.3 7.6c8.78 15.69 13.26 33.2 25.41 46.46l-9 1a5.15 5.15 0 004.17 2.57l-5.46.8a8.33 8.33 0 011.82 5.2 112.37 112.37 0 002.29 22.84c1.56 7.59 5 15 10.94 20-2.76 2.76-5.5 6.36-8.26 9.12a31.39 31.39 0 0021.8-10.43c-4-2-8.39-4.73-11.25-8.14s-4.23-8-5.14-12.42a91.33 91.33 0 01-1.81-21.51 59.77 59.77 0 009.43-4.28 22.45 22.45 0 008-7.31c-3.53 1.57-7.41 1.12-11-.23a15.11 15.11 0 01-8.31-7.64c-8.66-18.35-15.52-37.27-28.23-53.09.14-.2 0-.38.13-.58a44.8 44.8 0 0013-18.46c-2.19 1.78-5.46 1.61-8.28 1.49a50.67 50.67 0 01-9.68-1 16.72 16.72 0 01-8.44-4.6c2.33-3.12 4.45-6.35 6.79-9.47a42.31 42.31 0 01-17.51-7.6c-21.88-15.93-43-34.11-69-41.64a151.2 151.2 0 00-80.2-1c1.13.12 1.78.34 2.91.43zM341.26 256.24A83.73 83.73 0 01353 225.48l-14 13.7A115.83 115.83 0 01364.68 201l-12.28 11.16c11-20.87 31.2-36.11 53.54-43.72s46.68-8 69.95-4.09a156.34 156.34 0 00-91.74 27.78l16.11-3.66a121.73 121.73 0 00-29.62 28.9 128.69 128.69 0 0129.93-11.52 142.3 142.3 0 00-40.32 44.85 85.66 85.66 0 018.92-21.24 354.57 354.57 0 00-27.91 26.78z" transform="translate(-187.54 -147.19)"/><path class="cls-17" d="M566.74 198.54l7.7 12.49a140.6 140.6 0 01-18.8-14.52 44.26 44.26 0 005.39 14.4c-7.27-8.23-18.72-11.07-29.43-13.48a170.65 170.65 0 0137 30l-3.47-8.78A165 165 0 00609 239.51a364.11 364.11 0 01-30.26-24 239.59 239.59 0 0028.91 10zM462.77 228.74q-16.71 6.78-32.92 14.71a86 86 0 0131.89-22.72c-22.56 2.46-45 13.49-57 32.75a89.84 89.84 0 0119.74-9.15c-12.52 10.81-20.75 25.63-28.72 40.12a752.53 752.53 0 0164.93-44.06 251.58 251.58 0 00-27.19 13.09 106.44 106.44 0 0129.27-24.74z" transform="translate(-187.54 -147.19)"/><path class="cls-18" d="M661.54 406s13.25 26.73 2.92 68.05c0 0 12.34-16.68 10.34-44.86s-3.38-36.24-3.38-36.24zM645.63 421.32s.7 61-6.7 81.79-31.22 54.68-31.22 54.68 19.82-16.68 31.61-36.19 10.9-41.92 10.9-41.92l3.36-64.56-5-8.32zM602.23 544.58s-19.8 30.28-37.31 41.93c-22.3 14.83-55 19.59-55 19.59s73.56 4.79 92.31-61.52zM622.49 466.44s-31.3 14.88-63.58-4.77c0 0 13.13 14.49 31.14 16.5s26.54-6.03 32.44-11.73z" transform="translate(-187.54 -147.19)"/><path class="cls-17" d="M592 572.1s14.63 25.77-23.6 59c0 0 30.63-14.75 33.18-45.62l-5.87-17.75z" transform="translate(-187.54 -147.19)"/><path class="cls-18" d="M602.81 586.94s19.44 7.41 23.3 11.67-1 40.09.44 38.89 6.36-27.35 2.74-40.84c0 0 25.51 14.47 38.43 34.41s61.28 142 61.28 142-22.86 31.25-33.82 37.32l45.12-34.59s-44-135.61-86.72-172.5c0 0-17.51-12.78-24.14-13.89s-26.91-6.49-26.91-6.49zM650.22 709.79s17.41 65.47 16.83 84.65c0 0 1.78-30.83-1.07-42.81s-15.76-41.84-15.76-41.84z" transform="translate(-187.54 -147.19)"/><path class="cls-18" d="M609.43 586.84s5.77 43.83-25.84 82.47c0 0 16.29-26.69 17.95-49.1a344.19 344.19 0 001-37.3l7.91 2.06zM423.44 626.16s22.57 48.31 74.77 61.15c0 0 7.24 18.68 5.57 36.62 0 0 8.53-29.64.88-43.28 0 0-60.31-14.72-79.41-54.54M503.78 723.93s-15 40.68-13.41 75.9 3.33 67.94 3.33 67.94l8 1.73s-6.58-52.77-4.65-70.71 3.88-47.18 5.44-57.32a105.26 105.26 0 001.29-17.54z" transform="translate(-187.54 -147.19)"/><path class="cls-17" d="M590.26 587.23s-8.73 30.15-49.63 39.17-74.45-13.35-87.2-36.29c0 0 22.52 28.82 70.56 29.73h2.44c49.72-.02 53.25-23.15 63.83-32.61z" transform="translate(-187.54 -147.19)"/><path class="cls-5" d="M657.9 468.4s5.1 13.67 4.1 28.6c0 0 4-12.4 1.63-20.68s-4.58-9.88-4.58-9.88zM347.5 519.81s-3.33 5.83-8.54 7.47l3.88 3.12a14.39 14.39 0 005.94-8.8z" transform="translate(-187.54 -147.19)"/><path class="cls-19" d="M596.46 373.85c12.63.57 22.36 12.08 21.74 25.68a25.42 25.42 0 01-9.09 18.55v.12a58.21 58.21 0 01-23.34 2.93V421c-8.28-4-13.84-13.17-13.37-23.56a25 25 0 0113-21.14 31.08 31.08 0 015.41-1.65c1.73-.37 3.39-.64 5-.83zM471.31 410.61a26.24 26.24 0 01-13 22.64 86.49 86.49 0 01-25.11.78 26.25 26.25 0 01-5-43.59l-.08-.15a40.57 40.57 0 0118.51-5.89 26.26 26.26 0 0124.68 26.21z" transform="translate(-187.54 -147.19)"/><path class="cls-20" d="M352 457.77a39.62 39.62 0 01-21.74-6.9v1.55a2.72 2.72 0 01-3.67 2.56c-.34-.13-6.67-2.56-12.58-11.58a2.73 2.73 0 01-4.26 1.3c-.87-.68-21-16.49-24.28-36.62A100.43 100.43 0 00267 396.63a2.73 2.73 0 01.6-5.1c3.83-.89 11.91-3.92 12.48-7.63.29-1.87 0-5.17-.4-9-.73-7.54-1.7-17.54.84-27.14h-.22c-5.58 0-13.67-1.14-20.53-6.56a2.73 2.73 0 01.85-4.74c.14 0 13.74-4.51 19.36-13 4.53-6.79 8.59-19.35 10.26-25a58.63 58.63 0 01-14.48-4.91 2.74 2.74 0 01.24-4.93c.12-.05 11.76-5 15.92-11.43.28-.44.95-1.71 1.79-3.32 5.58-10.61 20.41-38.81 46.2-64.91 32.71-33.11 70.14-49.9 111.24-49.9a158.13 158.13 0 0124.24 1.91c3.46-1.19 19.15-6.09 41.7-6.09 28.91 0 72 8.33 112.79 48a29 29 0 0016.54 7 2.73 2.73 0 012.14 4.05 41.1 41.1 0 01-5.67 7.44 33.57 33.57 0 0014.42 3.65 23 23 0 006.78-1 2.73 2.73 0 013.51 2.89c0 .43-1.14 9.74-12 17.79 4.58 5.14 14.8 19.27 28.31 53.92a14.61 14.61 0 0011.63 5.52 19.26 19.26 0 004.54-.57 2.73 2.73 0 013 4c-.22.38-5.37 8.88-17.39 13.06-.41 10.63.58 25.35 4.21 28.11a51.25 51.25 0 0011.77 6.81 2.76 2.76 0 011.69 1.83 2.7 2.7 0 01-.49 2.43c-.32.4-7.51 9.4-18.45 13.25.89 7.69 3.64 17.81 7.62 18.8a2.73 2.73 0 01-.67 5.38 61.91 61.91 0 01-17.76-2.87c-2.39 5.17-8.77 16.9-19.86 23.3a2.73 2.73 0 01-4-2.91c.06-.29 5.62-28.26 1.86-54.17-1.21.11-2.7.2-4.19.2a19.28 19.28 0 01-5.2-.57 2.73 2.73 0 01-.92-4.78c.32-.25 8-6.52 5.34-19.1-1.52-7.05-3.76-11-5.46-13.07l-1.24 3.73a2.73 2.73 0 01-5 .41c-.11-.2-9.87-17.68-20.36-30.15v7a2.73 2.73 0 01-4.78 1.74c-.19-.23-15.52-18.52-31.8-31.86.21.28.43.56.65.83a2.73 2.73 0 01-1.66 4.42 18.81 18.81 0 01-2.84.18c-5.42 0-22.38-2-32.4-24.92-3.53 7.86-12.7 18.66-36.31 25.7a2.73 2.73 0 01-3-4.26l11.73-15.51c-5.2 1.31-13.48 4.46-23.92 12.08-17.91 13.07-20.87 20-20.9 20.09a2.68 2.68 0 01-2.56 1.78 2.73 2.73 0 01-2.56-1.86c-.25-.7-4.8-14-2.95-26.12-9.17 8.22-24 24.15-24 41.34a2.73 2.73 0 01-3.11 2.7c-.15 0-13-2-16.54-17.23-7.73 10.89-24.21 34-29.79 41.16-6.63 8.52-6.71 23.13-6.71 23.28a2.72 2.72 0 01-5.11 1.32l-2.78-5a55 55 0 00-4.1 13.49c-.51 2.93-1.94 7.86-3.74 14.11-5.84 20.23-15.61 54.09-9.87 72.47a2.72 2.72 0 01-.35 2.35 2.76 2.76 0 01-2.05 1.19s-.37.04-1.13.04zm-24.47-15.36a2.76 2.76 0 011.89.75 33.6 33.6 0 0020.06 9c-4.15-20.33 5.1-52.37 10.76-72 1.75-6.09 3.14-10.9 3.6-13.53 2.16-12.41 7-19.51 7.2-19.8a2.73 2.73 0 014.63.22l1 1.71c.94-5.47 2.9-12.39 7-17.65 7.16-9.2 33.45-46.32 33.72-46.69a2.72 2.72 0 014.95 1.5c.32 11.85 6.15 16.48 9.81 18.22 2.63-25.94 31.89-47 33.19-47.93a2.73 2.73 0 013.94 3.61c-4.39 7.52-2.84 18.75-1.31 25.42 3.12-3.8 8.83-9.5 19.18-17.05 18.32-13.36 30.83-14 33.15-14h.29a2.75 2.75 0 012.06 4.38l-10.32 13.64c26.94-10.75 26.26-26.32 26.22-27a2.73 2.73 0 015.34-1c6.78 23.4 19.71 28.69 27.28 29.69a89.15 89.15 0 01-5.31-9 2.73 2.73 0 013.87-3.55c15.01 9.31 31.47 26.65 39.43 35.65v-6.74a2.73 2.73 0 014.66-1.93c9.13 9.13 18.36 23.66 22.95 31.35l.63-1.74a2.71 2.71 0 011.46-1.58 2.75 2.75 0 012.16 0c.77.32 7.65 3.59 11 19.1 2 9.41-.7 16.12-3.38 20.12 2.58-.08 4.89-.41 4.92-.41a2.73 2.73 0 013.08 2.24c3.44 20.18 1.19 41.56-.37 52.09 9-7.83 13.35-19.18 13.4-19.32a2.75 2.75 0 011.5-1.55 2.68 2.68 0 012.15 0 41.9 41.9 0 0010.62 2.8c-3.89-6.82-4.88-17.14-5.07-19.86a2.72 2.72 0 012-2.83c6.89-1.88 12.4-6.48 15.38-9.42a61.91 61.91 0 01-9.55-6c-7.54-5.72-6.55-29.86-6.28-34.64a2.73 2.73 0 012-2.46 31.12 31.12 0 0011.87-6.47 20 20 0 01-14.94-8.13 2.49 2.49 0 01-.27-.51c-17.47-44.93-29.14-54.35-29.26-54.44a2.8 2.8 0 01-1.06-2.31 2.73 2.73 0 011.27-2.18c6.46-4 9.54-8.59 11-11.74a28.8 28.8 0 01-3.61.22c-11.13 0-20.09-6-20.47-6.26a2.73 2.73 0 01-.29-4.29 40.62 40.62 0 004.93-5.31 33.3 33.3 0 01-15.43-7.89c-39.5-38.37-81.06-46.43-109-46.43-24.05 0-40.33 5.93-40.49 6a2.81 2.81 0 01-1.38.14 152.52 152.52 0 00-24.07-2c-60.46 0-114.66 39.74-152.61 111.9-1 1.92-1.62 3.08-2 3.72-3 4.67-8.69 8.46-13 10.83a71.18 71.18 0 0010.56 2.68 2.73 2.73 0 012.21 3.4c-.22.81-5.39 19.78-11.8 29.4-4.28 6.42-11.93 10.73-17 13.06a30.68 30.68 0 0012.81 2.7 27.64 27.64 0 003.61-.21 2.71 2.71 0 012.54 1 2.76 2.76 0 01.44 2.69c-3.63 9.55-2.56 20.57-1.78 28.62.42 4.35.75 7.79.36 10.34-.76 4.95-5.92 8.16-10.32 10 9.79 5.46 14.44 9.68 14.67 9.89a2.72 2.72 0 01.86 1.65c1.7 12.91 11.94 24.42 18 30.18v-4.35a2.73 2.73 0 015.28-1c3.33 8.88 7.75 13.77 10.84 16.3v-2.34a2.73 2.73 0 011.65-2.51 2.7 2.7 0 01.97-.16z" transform="translate(-187.54 -147.19)"/><path class="cls-20" d="M362.09 487.77s.8 1.67 2.29 4.81l2.77 5.74q1.65 3.36 3.8 7.7c2.87 5.73 6.41 12.66 10.8 20.34 2.19 3.85 4.62 7.88 7.34 12a109.48 109.48 0 009.33 12.26 71.74 71.74 0 005.7 5.74c1 .91 2.08 1.79 3.17 2.63.54.41 1.11.84 1.65 1.21l1.83 1.27c2.39 1.61 4.86 3.18 7.47 4.66s5.29 2.86 8.08 4.13a121.6 121.6 0 0017.84 6.45c3.16.91 6.4 1.75 9.76 2.78 1.68.51 3.4 1.08 5.14 1.8a26.29 26.29 0 015.22 2.84c.42.31.84.62 1.24 1l1 .9c.34.32.62.53.89.76s.59.46.91.7a47.89 47.89 0 004.06 2.73 78.72 78.72 0 009 4.63 97.26 97.26 0 0019.83 6.2 94 94 0 0021 1.81 82.59 82.59 0 0010.54-1 103 103 0 0010.45-2.18 78.31 78.31 0 0019.51-8 85.83 85.83 0 0016.63-12.86c2.56-2.46 5-5 7.59-7.61l2-2 1.93-1.86 2.08-1.9c.7-.62 1.4-1.2 2.09-1.81 5.59-4.76 11.51-8.7 16.64-12.94a68.13 68.13 0 007.13-6.73c1.08-1.2 2.11-2.39 3.19-3.71s2.1-2.57 3.12-3.85A138.43 138.43 0 00636 520.86a96.3 96.3 0 007.72-16.07 77.83 77.83 0 004-16.07c1.36-10.85 2.19-20.91 2.61-29.8s.42-16.69.36-23.1-.26-11.46-.38-14.9l-.23-5.28a2.32 2.32 0 014.64-.25s.12 1.85.35 5.31.51 8.54.74 15 .32 14.38 0 23.43-1 19.23-2.21 30.35a83.68 83.68 0 01-4.07 17.4 100 100 0 01-8 17.26 146.08 146.08 0 01-11.28 16.42c-1 1.34-2.1 2.66-3.17 4s-2.2 2.66-3.38 4A76.67 76.67 0 01616 556c-5.5 4.59-11.27 8.52-16.51 13-.64.57-1.31 1.13-1.94 1.7l-1.88 1.71-1.93 1.87-1.83 1.86c-2.5 2.54-5 5.18-7.7 7.76a92.85 92.85 0 01-17.93 13.92 85.26 85.26 0 01-21.23 8.74 110.64 110.64 0 01-11.19 2.32 89.57 89.57 0 01-11.42 1 101.23 101.23 0 01-22.58-2 104.25 104.25 0 01-21.25-6.7 84.38 84.38 0 01-9.82-5.07c-1.58-1-3.13-2-4.64-3.14-.37-.29-.75-.56-1.14-.9s-.8-.66-1.1-.94l-.92-.82a8.17 8.17 0 00-.78-.62 29.14 29.14 0 00-8.33-3.71c-3.12-1-6.39-1.85-9.61-2.81a127.91 127.91 0 01-18.74-6.93 111.85 111.85 0 01-16.48-9.48l-1.82-1.28c-.67-.48-1.28-.93-1.9-1.41q-1.83-1.44-3.51-3a79.5 79.5 0 01-6.18-6.3 115.38 115.38 0 01-9.78-13 143.46 143.46 0 01-7.29-12.62 167.76 167.76 0 01-9.16-21.67c-1.07-3.07-1.92-5.85-2.61-8.28-.33-1.22-.65-2.34-.93-3.38s-.49-2-.7-2.83c-.8-3.38-1.08-5.22-1.08-5.22z" transform="translate(-187.54 -147.19)"/><path class="cls-20" d="M501.67 869.5a2.73 2.73 0 01-2.72-2.6c0-.22-1.07-22.08-3.63-48.22-2.72-27.75 2.47-65.75 6.63-96.29 3.49-25.56 1.49-36.32.61-39.48-44.79-12.33-67.8-36.66-79.23-55-12.58-20.17-14.25-37.28-14.31-38a2.71 2.71 0 011.31-2.58l6.7-4c1-6.11 2.22-10.21 3.85-12.51a2.73 2.73 0 014.45 3.17c-.69 1-2 3.71-3.09 11.4a2.75 2.75 0 01-1.3 2l-6.26 3.75a94.86 94.86 0 0013.43 34.19c11.05 17.6 33.41 41 77.25 52.74a2.7 2.7 0 011.72 1.39c.51 1 4.81 10.56.28 43.73-4.13 30.25-9.26 67.91-6.61 95 2.58 26.28 3.64 48.27 3.65 48.49a2.73 2.73 0 01-2.59 2.85zM569.42 607.7c-3.3-14.49 1.46-20.25 2-20.86l4 3.67v-.06s-3.44 4.4-.78 16z" transform="translate(-187.54 -147.19)"/><path class="cls-20" d="M449.63 579.74s.28.48.93 1.46 1.66 2.4 3.05 4.14a82 82 0 0013.08 13.09 88.3 88.3 0 0010.21 7 86 86 0 0026.7 10 96.49 96.49 0 0015.24 1.74l4 .11h3.86l3.87-.11 3.84-.22a95.49 95.49 0 0014.77-2.18 71.88 71.88 0 0013.17-4.36 61.13 61.13 0 0018.84-13 80.49 80.49 0 005.51-6.16c1.45-1.79 2.54-3.25 3.29-4.24l1.15-1.53-.84 1.72c-.56 1.11-1.4 2.74-2.6 4.75a60.13 60.13 0 01-4.81 7 53.58 53.58 0 01-7.76 7.92 59.72 59.72 0 01-5.12 3.81 62.68 62.68 0 01-6 3.37 69.31 69.31 0 01-13.81 5.08 100.7 100.7 0 01-15.42 2.73l-4 .33-4 .19-4.07.08h-4a96.39 96.39 0 01-16.16-1.56 90.62 90.62 0 01-15.22-4.17 86.67 86.67 0 01-13.36-6.3 83.6 83.6 0 01-10.91-7.51 86.23 86.23 0 01-13.9-14.12c-1.46-1.91-2.53-3.48-3.23-4.59-.36-.55-.62-1-.8-1.29l-.28-.49a2.73 2.73 0 014.75-2.68z" transform="translate(-187.54 -147.19)"/><path class="cls-20" d="M613.45 852.26a2.73 2.73 0 01-2.72-2.51c-4.58-57.61-10-79.8-14.8-99.39-1.75-7.14-3.4-13.88-4.92-21.89a121.76 121.76 0 00-10.07-31.29c-2.68-5.85-4.8-10.46-4.53-16.65.24-5.5 3.53-12.51 7.68-21.38 5.72-12.2 12.84-27.39 15.75-46 2.61-16.72 1.4-24.57.06-29.54a49.81 49.81 0 00-6.45-14.33 2.72 2.72 0 014.43-3.17 53.67 53.67 0 017.29 16.08c1.48 5.49 2.83 14.06.06 31.8-3 19.37-10.33 35-16.2 47.47-3.89 8.32-7 14.88-7.16 19.3-.22 4.87 1.47 8.55 4 14.13a126.81 126.81 0 0110.48 32.55c1.49 7.87 3.12 14.55 4.85 21.61 4.84 19.79 10.33 42.21 14.94 100.25a2.73 2.73 0 01-2.5 2.94z" transform="translate(-187.54 -147.19)"/><path class="cls-20" d="M740.3 778.52a2.73 2.73 0 01-2.57-1.82c-.31-.87-31.39-87.63-54.41-130.1-26.51-48.89-53.18-54.58-58.25-55.22a111.19 111.19 0 01-23.53-5.93 2.73 2.73 0 112-5.08 108.15 108.15 0 0022.21 5.63c16 2 40.85 18.35 62.37 58 23.22 42.84 54.44 130 54.75 130.88a2.73 2.73 0 01-1.65 3.49 2.92 2.92 0 01-.92.15zM649.32 708.2s.95 1.68 2.59 4.61 3.86 7.21 6.49 12.35c1.28 2.59 2.65 5.41 4.05 8.41s2.8 6.22 4.17 9.6a62.74 62.74 0 013.51 11l.27 1.4c.1.46.14 1 .22 1.47.12 1 .28 2 .36 3s.19 1.94.28 2.92.12 1.94.19 2.91c.24 3.89.34 7.76.43 11.57s0 7.54 0 11.16-.19 7.1-.3 10.41-.34 6.44-.51 9.32-.42 5.52-.63 7.86-.42 4.38-.63 6.06-.37 3-.5 3.89-.19 1.38-.19 1.38a2.73 2.73 0 01-5.44-.44s0-1.9.15-5.24.31-8.11.52-13.84.53-12.4.84-19.55c.13-3.57.26-7.26.4-11s.2-7.55.16-11.33c0-1.9-.06-3.77-.11-5.64 0-1-.1-1.8-.14-2.71 0-.45 0-.87-.1-1.35l-.17-1.41-.09-.7v-.35s0-.12 0 0v-.24l-.26-1.3c-.15-.86-.4-1.73-.62-2.6s-.45-1.74-.71-2.6-.48-1.72-.76-2.56c-1.05-3.39-2.2-6.65-3.29-9.75s-2.19-6-3.2-8.7c-2-5.39-3.74-9.86-5-13z" transform="translate(-187.54 -147.19)"/><path class="cls-20" d="M671.42 710.8s-.14 9.69-.72 19.39c-.28 4.85-.67 9.71-1.11 13.37-.09.92-.22 1.76-.32 2.51s-.2 1.4-.3 1.94c-.18 1.08-.29 1.7-.29 1.7a2.34 2.34 0 11-4.62-.79 2 2 0 01.06-.26v-.1s.16-.56.46-1.54c.15-.49.32-1.09.49-1.79s.41-1.48.6-2.36c.85-3.48 1.82-8.2 2.68-13 1.76-9.46 3.07-19.07 3.07-19.07zM292.16 826.87a2.74 2.74 0 01-2.53-3.75c4.18-10.44 7.06-49.39 9.17-77.83 1-13.12 1.81-24.45 2.61-31.17 2.53-21.28 24.76-69.37 50.28-92.2 24.54-21.95 57.7-34.3 59.1-34.81a2.73 2.73 0 111.89 5.12c-.33.12-33.61 12.52-57.35 33.76-24.63 22-46.06 68.32-48.5 88.77-.79 6.61-1.62 17.88-2.59 30.93-2.25 30.4-5.05 68.23-9.54 79.46a2.73 2.73 0 01-2.54 1.72z" transform="translate(-187.54 -147.19)"/><path class="cls-20" d="M494.37 870.58a455 455 0 01-49.86-2.79c-86.62-9.56-150.33-40.9-151-41.21a2.73 2.73 0 112.43-4.89c.62.31 63.61 31.27 149.31 40.69 78.91 8.68 193.83.35 293.19-88.63a2.73 2.73 0 113.64 4.07c-44.56 39.91-95.9 67.3-152.58 81.42a393.07 393.07 0 01-95.13 11.34z" transform="translate(-187.54 -147.19)"/><path class="cls-20" d="M358.71 743.55l1.34 2.76c.82 1.76 2 4.29 3.34 7.34.66 1.54 1.36 3.2 2.11 5s1.49 3.64 2.26 5.58 1.51 4 2.29 6 1.52 4.15 2.26 6.25l2.12 6.32c.64 2.1 1.3 4.16 1.89 6.17s1.11 4 1.58 5.84.88 3.64 1.24 5.28.63 3.16.89 4.51.41 2.53.56 3.5.24 1.75.31 2.27l.1.8a2.34 2.34 0 01-4.6.84v-.1l-.18-.76c-.12-.5-.29-1.24-.49-2.17s-.4-2.07-.73-3.37l-1-4.37q-.57-2.41-1.22-5.18c-.41-1.84-.92-3.77-1.4-5.77s-1-4.08-1.53-6.18-1.08-4.24-1.62-6.38-1.14-4.27-1.71-6.37-1.14-4.17-1.69-6.17-1.09-3.93-1.62-5.76-1-3.57-1.46-5.17c-.89-3.21-1.65-5.88-2.2-7.74s-.84-2.97-.84-2.97z" transform="translate(-187.54 -147.19)"/><path class="cls-20" d="M391.94 768.56c-.36.56-.85 1.39-1.48 2.46s-1.34 2.4-2.1 4-1.58 3.31-2.48 5.24l-1.28 3.06-.67 1.63-.62 1.69c-.42 1.15-.85 2.32-1.3 3.53s-.79 2.47-1.19 3.74c-.21.63-.41 1.28-.62 1.92s-.36 1.31-.55 2c-.36 1.33-.73 2.67-1.1 4s-.64 2.74-1 4.12-.64 2.78-.93 4.18c-.48 2.8-1.05 5.61-1.46 8.39s-.73 5.52-1 8.19-.44 5.24-.62 7.69c-.11 1.23-.1 2.42-.12 3.58s0 2.27-.05 3.34c0 2.14 0 4.11.12 5.84.06 1.11.13 2.12.2 3a16.73 16.73 0 016 2.91v-1.73c0-1.21 0-2.69-.06-4.38s0-3.6 0-5.68-.05-4.33 0-6.71.12-4.9.16-7.5.32-5.28.48-8 .55-5.49.82-8.26.77-5.51 1.21-8.22c.24-1.35.49-2.69.73-4 .12-.66.23-1.32.37-2s.28-1.29.43-1.93c.28-1.28.56-2.53.83-3.76s.63-2.42.93-3.58l.44-1.72c.17-.56.34-1.11.5-1.65.32-1.08.63-2.13.92-3.14.67-2 1.24-3.84 1.86-5.43s1.16-3 1.62-4.13.86-2 1.15-2.61.44-.91.44-.91-.22.27-.58.83zM603.08 577.09c0-.05.12.36.26.91s.31 1.37.46 2.4a32.67 32.67 0 01.27 3.69 37.13 37.13 0 01-.27 4.74 40 40 0 01-1.09 5.47 45 45 0 01-2.07 5.84 46.89 46.89 0 01-3.06 5.81 56.2 56.2 0 01-3.86 5.51c-.7.88-1.45 1.71-2.17 2.56s-1.52 1.62-2.27 2.43-1.56 1.52-2.34 2.26-1.6 1.4-2.38 2.08-1.6 1.3-2.39 1.91-1.56 1.19-2.35 1.72-1.53 1.07-2.27 1.56l-2.19 1.35c-1.39.88-2.73 1.57-3.9 2.21s-2.22 1.15-3.1 1.53-1.55.71-2 .91l-.72.32.61-.5c.4-.33 1-.8 1.73-1.39.37-.29.78-.62 1.24-1l1.42-1.18c1-.83 2.19-1.74 3.4-2.81l1.92-1.61c.63-.59 1.3-1.19 2-1.8s1.37-1.24 2.06-1.91 1.42-1.32 2.1-2 1.42-1.42 2.11-2.17l2.07-2.28c.66-.8 1.34-1.58 2-2.4s1.28-1.65 1.88-2.5a57.17 57.17 0 003.33-5.21 51.41 51.41 0 002.61-5.34 40.4 40.4 0 002.72-10 31.53 31.53 0 00.31-4.09A31.19 31.19 0 00599 581c-.09-.86-.18-1.51-.26-1.94s-.12-.55-.13-.6a2.34 2.34 0 114.48-1.34zM421.86 585.21v.51c0 .29 0 .78-.07 1.42s0 1.41 0 2.3.06 1.9.18 3 .27 2.29.43 3.55c.1.63.25 1.27.37 1.93a18.51 18.51 0 00.43 2c.17.68.35 1.37.53 2.06s.45 1.38.67 2.08.44 1.41.73 2.1l.86 2.07.43 1 .51 1 1 2a19.75 19.75 0 001.12 1.9l1.15 1.84a19.39 19.39 0 001.21 1.71l1.2 1.62a30.43 30.43 0 002.4 2.82l1.1 1.23.51.58.53.49 1.77 1.67 1.55 1.47-1.75-1.22-2-1.41-.6-.43-.6-.5-1.27-1.1a33.89 33.89 0 01-2.79-2.57l-1.46-1.45a19.05 19.05 0 01-1.46-1.62l-1.39-1.78a21.22 21.22 0 01-1.37-1.86l-1.29-2-.65-1-.57-1-1.13-2.11c-.39-.7-.65-1.45-1-2.17s-.65-1.43-.9-2.16-.51-1.46-.76-2.17-.44-1.42-.64-2.12-.39-1.38-.54-2.06c-.27-1.36-.57-2.64-.71-3.84s-.3-2.31-.37-3.3-.1-1.85-.11-2.57 0-1.3 0-1.73v-.59a2.34 2.34 0 114.65.44zM459.21 637.5l.73.39c.47.27 1.2.61 2.08 1.08s2 1 3.25 1.61l2 .95 2.23 1q1.15.54 2.43 1.08c.85.35 1.7.76 2.6 1.13 1.82.71 3.68 1.56 5.68 2.28 1 .37 2 .76 3 1.16s2.08.71 3.12 1.08c2.08.78 4.25 1.41 6.39 2.11 1.06.37 2.15.67 3.23 1s2.16.62 3.22.93c2.14.59 4.28 1.06 6.33 1.61 1 .3 2.05.45 3 .69l2.93.64c1.9.48 3.73.72 5.4 1.06l2.42.47 1.12.24 1.06.16c1.38.2 2.59.41 3.58.58s1.78.33 2.32.43l.82.17-.83.1c-.54.05-1.33.16-2.34.23s-2.25.2-3.66.28-3 0-4.76 0-3.65 0-5.64-.28-4.11-.37-6.26-.73l-3.28-.6c-1.11-.22-2.25-.37-3.35-.69s-2.25-.55-3.37-.86-2.26-.58-3.37-1c-2.21-.75-4.46-1.42-6.58-2.33-1.07-.42-2.13-.85-3.17-1.28l-3-1.42c-2-.9-3.83-2-5.59-2.93s-3.35-2-4.79-3l-2.06-1.43-1.8-1.38c-1.14-.85-2.05-1.7-2.82-2.35a31.6 31.6 0 01-2.27-2.18zM602.77 625.35l-.3.44-.91 1.26c-.39.53-.89 1.13-1.44 1.84s-1.21 1.48-2 2.29-1.52 1.71-2.4 2.61-1.83 1.82-2.81 2.77-2.06 1.86-3.15 2.79l-1.69 1.35-.84.68-.89.63c-1.18.85-2.35 1.71-3.58 2.44l-1.76 1.12c-.61.34-1.22.66-1.82 1l-1.75.94-1.75.77a26.61 26.61 0 01-3.22 1.31l-2.77 1-2.19.54-1.9.46 1.83-.69 2.09-.79 2.6-1.26a29.22 29.22 0 003-1.65l1.59-.95 1.59-1.11c.53-.38 1.08-.75 1.63-1.15l1.59-1.29c1.09-.83 2.1-1.79 3.13-2.73l.77-.7.73-.75 1.45-1.52c.92-1 1.82-2 2.66-3s1.63-2 2.33-2.93 1.37-1.86 1.95-2.71 1.09-1.65 1.56-2.35.82-1.33 1.1-1.84.52-.91.66-1.17l.22-.43a2.73 2.73 0 114.83 2.55 1.89 1.89 0 01-.14.23zM664.27 478.17a2.76 2.76 0 01-1.48-.43A2.73 2.73 0 01662 474c7-10.76 10.09-24.58 10.09-44.81a187.28 187.28 0 00-3.32-35.66 2.73 2.73 0 015.34-1.15 190.16 190.16 0 013.44 36.81c0 21.35-3.38 36.08-11 47.78a2.7 2.7 0 01-2.28 1.2zM336.12 509.47v-.15a51.78 51.78 0 01-7.41-5.23c-29.17-24.73-30.88-79.06-30.89-79.6a2.73 2.73 0 00-5.46.13c.06 2.33 1.77 57.3 32.81 83.62a56.38 56.38 0 0011.74 7.69 27 27 0 01-.79-6.46zM376.46 517.86a2.73 2.73 0 00-3.08-2.32c-10.33 1.45-19.73.73-28.14-2.1a26 26 0 001.18 6.08 62.15 62.15 0 0016.77 2.22 80 80 0 0010.95-.79 2.73 2.73 0 002.32-3.09z" transform="translate(-187.54 -147.19)"/><circle class="cls-21" cx="257.23" cy="263.91" r="11.75"/><circle class="cls-20" cx="257.23" cy="263.91" r="7.75"/><path class="cls-20" d="M444.07 472.32a84 84 0 01-19.64-2.45c-15.4-3.73-27-11.32-34.4-22.57-6.25-9.46-9.58-21.56-9.88-35.95v-.36a55.22 55.22 0 0110.64-26c8.66-11.68 26.2-25.59 60.57-25.59 1.36 0 2.75 0 4.13.06 30.59.94 43.08 14.29 48.17 25.33 10.62 23-1.14 52.75-9.79 63.55-12.54 15.66-29.77 23.98-49.8 23.98zm-56.89-60.91c.65 28.18 13.73 45.55 38.9 51.63a76.92 76.92 0 0018 2.26 55.11 55.11 0 0044.33-21.3c7.94-9.9 17.69-37.15 8.9-56.22-6.2-13.44-20.34-20.59-42-21.26-1.32 0-2.63-.06-3.92-.06-25.25 0-43.74 7.66-54.93 22.76a48.81 48.81 0 00-9.28 22.19zM561.2 484.85a2.2 2.2 0 01-.79-.14 2.33 2.33 0 01-1.41-3c4.89-13.57-.08-17.71-4.24-19.64-9.64-4.48-12.39-26.84-11.75-46.28 1-32.06 14.65-47.33 15.23-48a2.34 2.34 0 013.46 3.21c-.13.15-13 14.77-14 45-.84 25.5 4.1 39.59 9.05 41.88 9 4.19 11.25 12.75 6.67 25.48a2.33 2.33 0 01-2.22 1.49zM505.43 468.2l-.21.19c-.15.13-.37.35-.66.63a24.28 24.28 0 00-2.19 2.55 21.63 21.63 0 00-2.39 4.08 15.85 15.85 0 00-.84 2.52c-.13.44-.17.89-.27 1.34s-.13.92-.13 1.38v1.39a13.22 13.22 0 00.12 1.4c0 .46.18.91.26 1.37s.25.88.37 1.32l.46 1.26c.17.41.36.81.53 1.2s.39.74.58 1.1a10.74 10.74 0 00.59 1c.41.64.78 1.23 1.16 1.72a15.93 15.93 0 001 1.29l.89 1.1-1.12-.88a15.92 15.92 0 01-1.24-1.07 17.66 17.66 0 01-1.52-1.5 9.31 9.31 0 01-.81-.93c-.26-.34-.57-.66-.82-1s-.54-.76-.81-1.17-.5-.84-.74-1.29-.45-.93-.65-1.42-.4-1-.54-1.51a14.6 14.6 0 01-.41-1.61l-.15-.82-.1-.84a15.81 15.81 0 01-.08-1.69c0-.56 0-1.13.11-1.68a19.29 19.29 0 01.64-3.2 21.69 21.69 0 012.36-5.25 23.41 23.41 0 012.4-3.27c.33-.38.61-.66.81-.86l.32-.31a2.34 2.34 0 113.25 3.37l-.06.06z" transform="translate(-187.54 -147.19)"/><path class="cls-20" d="M508.49 487.59H508.78a5.71 5.71 0 01.68-.09 16.12 16.12 0 015.83.54 17.51 17.51 0 014.13 1.68 20.9 20.9 0 014.12 3 25.37 25.37 0 011.88 2 13.36 13.36 0 001.67 1.69 11.49 11.49 0 004.33 2.26 14.79 14.79 0 005.2.46 15.91 15.91 0 002.65-.43c.43-.1.86-.21 1.29-.35l.63-.2.57-.21.66-.27.49-.27a8.75 8.75 0 001-.65 10.67 10.67 0 001.71-1.65 25.76 25.76 0 002.65-4.11c.8-1.43 1.57-2.87 2.45-4.17a19.11 19.11 0 012.84-3.41 16.91 16.91 0 012.86-2.15 19.24 19.24 0 012.08-1l.76-.32a2.75 2.75 0 012.09 5.09 3.68 3.68 0 01-.54.16h-.09l-.56.1a9.68 9.68 0 00-1.54.44 9.57 9.57 0 00-2.2 1.15 12.63 12.63 0 00-2.49 2.34 38.67 38.67 0 00-2.6 3.64 32.85 32.85 0 01-3.27 4.41 13.6 13.6 0 01-2.34 2 14.34 14.34 0 01-1.38.82l-.78.35-.66.26-.14.05h-.09l-.18.06-.36.11-.73.22c-.49.13-1 .25-1.48.36a28.33 28.33 0 01-3 .43 19.44 19.44 0 01-6.17-.45 15.38 15.38 0 01-5.56-2.61 17.61 17.61 0 01-2.19-1.95 19.24 19.24 0 00-1.72-1.58 14.68 14.68 0 00-3.55-2.18 12.2 12.2 0 00-3.27-.93 11 11 0 00-2.54 0 7.41 7.41 0 00-1.53.28l-.32.11a2.62 2.62 0 11-1.45-5zM659.4 500.87h-.14c-1.16 0-5-.59-5.88-6.73-.17-1.25-.32-2.42-.46-3.52-.7-5.44-1.16-9-3.33-14.11a2.73 2.73 0 015-2.15c2.47 5.78 3 9.88 3.72 15.57.14 1.08.29 2.23.46 3.47a3.94 3.94 0 00.67 2c.69-.12 2.55-1.85 3.24-5.53 1.41-7.48-2-18.36-3.9-20.6a30.19 30.19 0 00-5.21 1.6 2.73 2.73 0 01-2.15-5 34.48 34.48 0 017.17-2.09 4.38 4.38 0 013.91 1.52c3.79 3.9 7.16 17 5.55 25.59-1.05 5.8-4.71 9.98-8.65 9.98zM359 518.67a3 3 0 01-.32-.06 17.74 17.74 0 01-4.47 6.61 12.09 12.09 0 01-6.9 3.36 7.85 7.85 0 01-3.44-.44 9.86 9.86 0 01-3.1-2c-.25-.22-.42-.42-.64-.63s-.24-.27-.38-.42l-.41-.48-.07-.09-.14-.19-.28-.39a8.39 8.39 0 01-.5-.81 12.07 12.07 0 01-1.32-3.67 21.12 21.12 0 01.4-8.58 36.77 36.77 0 013.23-8.59 30.18 30.18 0 012.37-3.83 13.89 13.89 0 011.25-1.48l.06-.06.11-.1.2-.16a1.11 1.11 0 01.43.13 5.46 5.46 0 011.29.82 13.16 13.16 0 011.44 1.38l.05.06c-.17.36-.34.71-.5 1.08-.52 1.15-1 2.32-1.46 3.51a37.77 37.77 0 00-2 7.44c-.09.66-.18 1.31-.21 2a15.58 15.58 0 000 2.05 14 14 0 00.32 2.11c.11.35.21.7.33 1s.3.69.47 1 .39.65.62 1a10.12 10.12 0 00.75.85c.29.24.57.49.86.71l.94.55a9.89 9.89 0 002 .69l.51.12.46.06.89.11a1 1 0 00.4-1.91l-.86-.26a4.17 4.17 0 01-.42-.13l-.34-.16a7.26 7.26 0 01-1.3-.74l-.54-.46-.44-.53c-.12-.18-.22-.39-.34-.57s-.16-.42-.25-.61-.1-.45-.16-.66-.05-.47-.08-.7a9 9 0 01.05-1.46 10.37 10.37 0 01.28-1.52c.11-.51.28-1 .44-1.53a33 33 0 012.87-6c.58-1 1.19-1.92 1.83-2.86.32-.47.65-.93 1-1.38s.69-.93 1-1.29a3 3 0 00.24-3.52l-.26-.41c-.35-.5-.61-.84-.93-1.24s-.62-.75-.95-1.12a23.5 23.5 0 00-2.21-2.11 12.73 12.73 0 00-3-1.84 7.73 7.73 0 00-4.49-.55 6.7 6.7 0 00-2.33.9l-.26.16h-.06l-.19.13h-.07l-.25.2a4.28 4.28 0 00-.36.3l-.41.37a19.52 19.52 0 00-2 2.37 36.17 36.17 0 00-2.95 4.75 43.79 43.79 0 00-3.86 10.27 27.86 27.86 0 00-.45 11.47 19.5 19.5 0 002.08 5.8c.28.44.52.91.83 1.33l.46.64.23.32.06.08.13.15.1.12.41.48a6.48 6.48 0 00.47.52c.38.39.76.82 1.15 1.15a16.66 16.66 0 005.41 3.37 14.86 14.86 0 006.5.85 17 17 0 006.06-1.75 20.91 20.91 0 005-3.44 24.74 24.74 0 006.46-9.73 3.44 3.44 0 00.11-2 21.33 21.33 0 01-6.65.09zm-14.37-22zM506 524.65a305.16 305.16 0 01-39.07-2.91 2.35 2.35 0 01-2-2.69 2.42 2.42 0 012.79-1.93c.66.11 67 10.44 117-8.61a2.46 2.46 0 013.14 1.32 2.31 2.31 0 01-1.37 3C560.17 522.87 529.61 525 506 524.65z" transform="translate(-187.54 -147.19)"/><path class="cls-20" d="M523.82 547.54c-34-.48-50.82-24.86-51.53-25.9a2.29 2.29 0 01.71-3.24 2.47 2.47 0 013.35.68 61.29 61.29 0 0047.58 23.78h1c32.13 0 53.5-31.38 53.72-31.7a2.48 2.48 0 013.35-.69 2.28 2.28 0 01.71 3.23c-.92 1.38-23 33.8-57.78 33.84zM504.53 467.31l-3.32 1.7a300.6 300.6 0 00-8.7 4.65c-1.78 1-3.71 2.07-5.72 3.25s-4.12 2.43-6.25 3.8c-1.06.69-2.13 1.39-3.19 2.13s-2.16 1.49-3.14 2.29c-2 1.63-4.11 3.44-6.2 5.21s-4.21 3.54-6.41 5.21a37.78 37.78 0 01-3.47 2.37l-1.75.95-1.77.91a54.54 54.54 0 01-13.49 4.74 41.47 41.47 0 01-5.67.72 31.78 31.78 0 01-4.39-.1 18.88 18.88 0 01-2.77-.46 9.67 9.67 0 01-1-.27 8.59 8.59 0 001 .09 26.06 26.06 0 002.77 0 34.48 34.48 0 004.23-.52 46.2 46.2 0 005.35-1.3 62.48 62.48 0 006.08-2.26c2.12-.92 4.3-2 6.5-3.22l1.63-.94 1.66-1a33.22 33.22 0 003.08-2.24c2.06-1.64 4.09-3.45 6.13-5.27s4.08-3.63 6.22-5.4a70 70 0 016.6-4.7c2.19-1.4 4.33-2.71 6.4-3.88s4-2.26 5.86-3.22c3.66-1.91 6.76-3.42 8.93-4.45s3.46-1.57 3.46-1.57a1.55 1.55 0 011.33 2.8zM561 461.57l.58.48c.38.31 1 .76 1.72 1.33 1.49 1.14 3.71 2.68 6.46 4.38a73.59 73.59 0 009.77 5.05 49.64 49.64 0 0012 3.46 34.34 34.34 0 006.3.42c.52 0 1 0 1.55-.08l.78-.05.76-.07c1.09-.11 2-.23 3-.4a43.59 43.59 0 005.62-1.36 32.34 32.34 0 004.81-2 32.75 32.75 0 003.78-2.3 24 24 0 002.66-2.18 17.15 17.15 0 002-2.23 14.26 14.26 0 01-1.69 2.54 25.76 25.76 0 01-6.07 5.38 33.57 33.57 0 01-4.83 2.58 35 35 0 01-5.81 1.93c-1 .26-2.14.49-3.17.66a8.1 8.1 0 01-.81.13l-.84.1c-.55.06-1.11.13-1.67.15a38.1 38.1 0 01-6.83-.16 46.35 46.35 0 01-6.68-1.28 49.35 49.35 0 01-6.22-2.1 63 63 0 01-10.26-5.34 69.28 69.28 0 01-6.6-4.8c-.76-.62-1.34-1.15-1.74-1.51l-.61-.57a1.47 1.47 0 011.93-2.21zM584.8 664.69l1.13.8c.72.52 1.72 1.26 2.91 2.18s2.55 2 4 3.2c.71.62 1.45 1.22 2.18 1.89s1.47 1.31 2.19 2 1.44 1.38 2.12 2.09 1.34 1.41 2 2.1 1.19 1.41 1.74 2.06 1 1.35 1.43 1.94a20.38 20.38 0 011.08 1.73l.43.72.3.66.55 1.24s-.26-.42-.73-1.14l-.38-.59-.53-.65a19.45 19.45 0 00-1.29-1.51c-.52-.51-1-1.12-1.66-1.66s-1.25-1.17-2-1.74-1.42-1.18-2.2-1.74-1.54-1.15-2.34-1.7-1.6-1.09-2.4-1.62-1.6-1-2.36-1.49c-1.56-1-3-1.8-4.29-2.51s-2.34-1.27-3.08-1.65l-1.17-.59a2.35 2.35 0 112.42-4zM591.25 648.1l.41.06c.3 0 .66.12 1.14.21s1 .23 1.67.42 1.34.39 2.1.64 1.56.55 2.4.89 1.72.72 2.6 1.17 1.79.9 2.69 1.4 1.77 1.07 2.66 1.6 1.7 1.18 2.54 1.76l2.33 1.85 2.08 1.84c.66.58 1.22 1.21 1.76 1.74s1 1 1.44 1.51.76.88 1.06 1.21l.91 1.05-1.06-.91-1.21-1c-.45-.41-1-.81-1.62-1.27s-1.23-1-2-1.44l-2.26-1.49-2.5-1.44c-.88-.44-1.75-.9-2.65-1.32s-1.8-.82-2.71-1.15-1.8-.67-2.68-.93-1.73-.51-2.53-.72-1.59-.36-2.29-.49-1.36-.24-1.94-.3-1.07-.11-1.48-.15-.72 0-.89 0h-.37a2.35 2.35 0 010-4.7 2 2 0 01.4-.04z" transform="translate(-187.54 -147.19)"/><path class="cls-20" d="M440.34 504.14s0 .19.07.5l.22 1.4c.12.61.25 1.36.44 2.21s.4 1.82.65 2.87c.11.52.27 1.06.42 1.62s.29 1.15.46 1.75c.38 1.18.7 2.45 1.16 3.73l.65 2 .75 2c.47 1.35 1.1 2.65 1.66 4s1.26 2.62 1.88 3.92 1.36 2.5 2 3.71 1.42 2.3 2.07 3.37 1.39 2 2 2.94 1.17 1.77 1.75 2.46 1 1.32 1.43 1.83l1.25 1.62-1.47-1.42c-.46-.45-1-1-1.67-1.64s-1.31-1.41-2.07-2.23-1.57-1.72-2.33-2.75-1.64-2.07-2.46-3.21-1.64-2.34-2.42-3.59-1.56-2.53-2.27-3.86-1.43-2.65-2-4l-.92-2c-.29-.67-.55-1.34-.81-2-.54-1.31-1-2.61-1.37-3.84s-.73-2.43-1-3.54-.47-2.13-.63-3-.24-1.72-.34-2.39-.12-1.19-.13-1.58v-.55zM603.89 476.82s.1.15.3.51.48.86.79 1.5.68 1.43 1.06 2.35.8 1.95 1.17 3.1.75 2.42 1.14 3.76c.16.68.32 1.37.48 2.08l.24 1.08.2 1.11c.12.75.24 1.51.37 2.28s.17 1.56.25 2.35c.21 1.58.21 3.2.27 4.81s-.07 3.22-.12 4.8-.33 3.12-.51 4.61c-.07.75-.26 1.47-.39 2.18s-.29 1.4-.44 2.07a32.81 32.81 0 01-1 3.73c-.17.57-.34 1.12-.5 1.64l-.24.76-.28.69c-.37.9-.69 1.68-1 2.32l-.87 2 .42-2.13c.15-.67.32-1.49.52-2.43l.16-.72.12-.77.25-1.67c.15-1.16.44-2.39.51-3.73s.3-2.72.36-4.17.14-2.95.12-4.46c0-.76 0-1.52-.07-2.29s0-1.53-.1-2.3c-.13-1.53-.23-3.06-.48-4.55-.1-.75-.19-1.5-.31-2.22s-.28-1.45-.42-2.15l-.19-1.05c-.08-.34-.17-.68-.25-1-.16-.67-.32-1.32-.47-2-.39-1.26-.66-2.47-1-3.55-.18-.54-.35-1.07-.51-1.56l-.51-1.39c-.32-.87-.65-1.61-.9-2.22s-.47-1.08-.62-1.37-.24-.48-.24-.48zM411.74 446.18s1 .64 2.79 1.6a64.4 64.4 0 007.64 3.43c1.61.59 3.38 1.19 5.27 1.71a57.16 57.16 0 006 1.32c1 .19 2.12.31 3.2.46s2.19.25 3.31.26l1.68.09h1.69c1.13 0 2.26-.07 3.4-.12s2.26-.22 3.39-.33 2.23-.32 3.34-.51 2.19-.44 3.26-.7l3.15-.85 3-.95 2.84-1.08c.94-.33 1.8-.75 2.67-1.1s1.69-.72 2.46-1.11l2.26-1.08c.71-.34 1.36-.73 2-1.05 1.25-.67 2.36-1.23 3.23-1.78l2.79-1.6-2.49 2.06c-.79.66-1.8 1.39-3 2.22-.6.41-1.21.87-1.89 1.3l-2.15 1.35c-.75.48-1.56.92-2.41 1.37s-1.7 1-2.63 1.38l-2.86 1.31-3.07 1.2c-1.05.39-2.15.69-3.24 1s-2.25.58-3.4.88-2.32.46-3.5.67-2.38.32-3.58.4-2.39.18-3.59.16h-1.8l-1.78-.09c-.59 0-1.18-.07-1.76-.14l-1.74-.19-1.71-.28c-.57-.09-1.13-.19-1.68-.32a51.23 51.23 0 01-6.23-1.77 49.13 49.13 0 01-5.31-2.32 43.21 43.21 0 01-4.21-2.46 35.59 35.59 0 01-3-2.21c-.81-.65-1.4-1.21-1.8-1.59s-.54-.54-.54-.54z" transform="translate(-187.54 -147.19)"/><ellipse class="cls-21" cx="595.44" cy="398.76" rx="10.76" ry="9.99" transform="rotate(-87.37 424.585 423.348)"/><ellipse class="cls-20" cx="595.44" cy="398.76" rx="7.2" ry="6.68" transform="rotate(-87.37 424.585 423.348)"/><path class="cls-20" d="M599.44 454.86c-15.75 0-31.36-5.24-41.74-14-9.59-8.12-16.28-32.17-10.53-53.7 4.93-18.5 18-30.57 36.7-34a124.59 124.59 0 0122.16-2.2c21.16 0 32.14 7.39 37.62 13.59a28.52 28.52 0 017 14.2c3.5 20.17 5.42 55.89-20.74 69.06a67.89 67.89 0 01-30.47 7.05zM606 358a116.94 116.94 0 00-20.86 2c-20.4 3.73-28.22 17.77-31.19 28.9-4.84 18.16.48 39.93 8.29 46.54 9.15 7.74 23.06 12.36 37.2 12.37a60.88 60.88 0 0027.33-6.34c22.14-11.15 20.13-43.42 17-61.67a.76.76 0 010-.21c-.17-.82-3.18-21.59-37.77-21.59z" transform="translate(-187.54 -147.19)"/><path class="cls-20" d="M632.17 422.49a20.07 20.07 0 01-1.85 2.07c-.62.63-1.41 1.36-2.34 2.17s-2 1.65-3.29 2.54a47.2 47.2 0 01-4.17 2.61 46.19 46.19 0 01-5 2.38 41.34 41.34 0 01-5.64 1.83 43.49 43.49 0 01-6 1.07c-1 .08-2.06.18-3.08.21s-2 0-3.07 0-2-.11-3-.26l-1.46-.19c-.49-.07-1-.18-1.43-.27l-1.4-.29-1.36-.38-1.32-.36c-.43-.13-.84-.29-1.26-.43-1.67-.55-3.16-1.27-4.55-1.88-.68-.35-1.32-.7-1.93-1l-.88-.48-.81-.51c-1-.67-1.95-1.21-2.65-1.76-1.4-1.06-2.18-1.68-2.18-1.68s.91.43 2.46 1.21c.76.42 1.77.78 2.86 1.29l.85.38.92.34 2 .75c1.4.44 2.9 1 4.54 1.32.41.1.81.22 1.23.31l1.28.25 1.3.25 1.34.16 1.35.18 1.39.1c.92.1 1.86.1 2.81.11a52.54 52.54 0 005.73-.32 50.52 50.52 0 005.64-1.06c1.85-.44 3.63-1 5.35-1.58s3.35-1.26 4.88-1.92 3-1.37 4.28-2 2.48-1.35 3.54-1.93 1.93-1.16 2.68-1.61c1.41-1.04 2.24-1.62 2.24-1.62zM444 563.67s1.37 1.43 3.38 3.59l3.42 3.71 3.89 4.27 7.21 8 2.36 2.59.89.94.05.05a1.95 1.95 0 11-2.83 2.68h-.05l-.93-1.06c-.56-.68-1.37-1.63-2.27-2.82s-2-2.54-3-4.05-2.24-3.09-3.36-4.71l-3.33-4.86-2.79-4.21c-1.64-2.44-2.64-4.12-2.64-4.12zM504.33 558.6s.71.47 2 1.14c.65.33 1.43.72 2.35 1.11s2 .81 3.12 1.18a38.88 38.88 0 003.76 1c.67.17 1.37.27 2.08.42s1.44.24 2.19.31a45.53 45.53 0 004.61.31c1.57 0 3.17 0 4.77-.19l1.2-.11 1.19-.17c.8-.1 1.59-.24 2.37-.38s1.56-.3 2.32-.48 1.51-.36 2.25-.57c1.48-.36 2.89-.83 4.23-1.26s2.6-.88 3.74-1.36l1.67-.63 1.48-.63 1.31-.54 1.11-.49c1.33-.59 2.12-.91 2.12-.91s-.66.53-1.84 1.4c-.59.44-1.32 1-2.19 1.51s-1.83 1.19-2.95 1.79-2.33 1.25-3.64 1.89-2.75 1.21-4.26 1.73c-.76.28-1.53.53-2.33.75s-1.59.47-2.42.65l-1.23.29c-.42.09-.85.15-1.27.23l-1.27.21-1.28.15a38.73 38.73 0 01-5.15.22 33.29 33.29 0 01-5-.54 27.39 27.39 0 01-4.52-1.19 28 28 0 01-3.84-1.65 24.31 24.31 0 01-5.1-3.52 11.93 11.93 0 01-1.58-1.67zM500.12 334.4s.76-.45 2.15-1.13c.7-.34 1.54-.75 2.54-1.17s2.11-.89 3.36-1.34 2.61-.94 4.07-1.37 3-.89 4.63-1.26 3.32-.72 5.06-1c.87-.14 1.75-.24 2.64-.35s1.78-.15 2.67-.23c3.51-.22 7-.36 10.29-.44 1.65 0 3.24-.05 4.74-.06s2.94 0 4.26 0c2.63 0 4.83.13 6.37.21s2.43.17 2.43.17-.87.19-2.39.45-3.69.62-6.31 1c-1.3.17-2.72.36-4.22.52s-3.08.35-4.71.49-3.33.31-5.05.43l-5.22.36c-1.7.1-3.41.27-5.09.46l-2.5.33-2.43.37c-1.6.27-3.15.52-4.61.81l-4.13.83c-2.56.55-4.69 1-6.19 1.38zM488.42 316.08l3.21-.34 8.46-.82 5.63-.54 6.27-.65c2.16-.24 4.39-.54 6.65-.84 1.13-.15 2.26-.33 3.38-.53l3.46-.59c2.36-.34 4.7-.64 7-.9s4.57-.46 6.77-.65 4.31-.32 6.33-.44 3.92-.2 5.68-.26c3.51-.13 6.45-.14 8.51-.13s3.23.06 3.23.06-1.15.22-3.18.56-4.93.8-8.4 1.3c-1.74.25-3.63.53-5.62.79l-6.26.85-6.69.9c-2.27.3-4.57.64-6.85 1l-3.46.53c-1.18.19-2.35.36-3.51.49-2.31.3-4.6.43-6.8.59s-4.34.19-6.37.23-3.93 0-5.69 0c-3.53 0-6.46-.2-8.52-.35-1-.06-1.83-.15-2.38-.19z" transform="translate(-187.54 -147.19)"/><path class="cls-20" transform="rotate(-79.14 187.385 446.68)" d="M366.72 392.86h7.02v27.88h-7.02z"/><path class="cls-20" d="M650.89 490.11a2.34 2.34 0 01-1.2-4.35l4.06-2.41a2.34 2.34 0 112.39 4l-4.06 2.41a2.38 2.38 0 01-1.19.35zM632.17 487.77s.07.82 0 2.26c0 .71 0 1.59-.11 2.59s-.16 2.12-.33 3.34-.35 2.54-.61 3.93-.56 2.85-.93 4.34-.77 3-1.29 4.58c-.26.77-.51 1.55-.76 2.33l-.87 2.3c-.57 1.55-1.24 3.06-1.92 4.53s-1.42 2.89-2.13 4.25-1.53 2.63-2.27 3.83c-.38.6-.73 1.19-1.1 1.74s-.78 1.05-1.14 1.55c-.73 1-1.4 1.9-2 2.67s-1.24 1.41-1.72 2c-1 1.06-1.54 1.64-1.54 1.64s.36-.75 1-2c.34-.63.75-1.4 1.24-2.25s.93-1.88 1.5-3l.87-1.67c.28-.58.56-1.19.86-1.81.59-1.25 1.25-2.55 1.83-3.93s1.27-2.77 1.85-4.24 1.23-2.92 1.77-4.43l.87-2.23c.27-.75.54-1.5.8-2.24.56-1.48 1-3 1.51-4.38s.92-2.81 1.33-4.13.79-2.57 1.11-3.74c.68-2.32 1.21-4.28 1.58-5.66zM411.74 520.14a1 1 0 00.12.46 9.75 9.75 0 00.67 1.18c.63 1 1.62 2.35 2.82 4 2.43 3.2 5.75 7.38 9.21 11.45l2.58 3 2.55 2.9 4.59 5.12 1.86 2c.56.6 1 1.15 1.43 1.59.81.88 1.25 1.42 1.25 1.42s-.61-.32-1.64-.94a49.11 49.11 0 01-4.11-2.79c-.82-.61-1.7-1.29-2.6-2s-1.83-1.58-2.76-2.46-1.88-1.81-2.81-2.8-1.83-2-2.73-3-1.74-2.12-2.54-3.2-1.58-2.17-2.29-3.23-1.37-2.13-1.95-3.16-1.11-2-1.56-2.94A28.61 28.61 0 01412 522a7.48 7.48 0 01-.28-1.39.89.89 0 01.02-.47zM504.68 404.36l-1.62-6.83c1.06-.25 26.11-6.06 46.51.06l-2 6.72c-18.57-5.57-42.65 0-42.89.05z" transform="translate(-187.54 -147.19)"/><path class="cls-22" d="M416.55 358c-.74 1.05.31 2.56 1.36 1.95 5.83-3.4 16.55-8.79 25.28-8.39 10.31.46 24.14 13.13 24.89 2.52.76-10.82-31.48-24.53-51.53 3.92zM611.63 349.18c.78 1 0 2.59-1 2.07-5.56-2.92-15.41-7.14-23.1-5.39-9 2.06-20 15.62-21.84 5.15s25.15-27.6 45.94-1.83z" transform="translate(-187.54 -147.19)"/><path class="cls-20" d="M511.81 300.87h1.85c.58 0 1.28-.09 2.08-.16s1.7-.19 2.68-.31c2-.28 4.2-.68 6.6-1.18 1.2-.25 2.44-.53 3.69-.83s2.53-.62 3.79-.95 2.57-.66 3.92-.91 2.64-.46 3.91-.62 2.51-.22 3.69-.24a29.44 29.44 0 013.32.11 22.06 22.06 0 012.78.4 16 16 0 012.09.57 8.35 8.35 0 011.72.77l-.48-.07c-.31 0-.78-.06-1.35-.09s-1.28 0-2.08 0-1.7.11-2.67.21-2 .25-3.13.43-2.26.4-3.46.63L539 299l-1.84.44c-1.22.29-2.57.66-3.82 1l-2 .49c-.66.15-1.32.27-2 .4s-1.31.24-2 .34-1.29.2-1.93.26c-1.27.15-2.5.23-3.67.28h-1.71l-1.59-.06c-1 0-2-.16-2.78-.28a19.83 19.83 0 01-2.12-.42 10 10 0 01-1.32-.4 3.87 3.87 0 01-.41-.18zM401.47 223.67c-1.28 1-2.52 2-3.75 3s-2.43 2.07-3.63 3.12-2.36 2.14-3.5 3.25-2.27 2.23-3.39 3.35-2.18 2.3-3.23 3.49-2.1 2.37-3.07 3.62l-1.48 1.85-1.39 1.9c-1 1.25-1.75 2.61-2.62 3.9-.44.65-.78 1.36-1.17 2s-.8 1.34-1.12 2l-2 4.29c-.34.73-.65 1.45-1 2.18l-1.26 2.22c-.4.76-.9 1.42-1.36 2.13l-.71 1c-.25.34-.53.66-.79 1a33.93 33.93 0 01-3.44 3.77 29.57 29.57 0 01-4.07 3.2l-1.1.7c-.38.22-.77.42-1.15.63a26.25 26.25 0 01-2.4 1.13l-1.25.47-1.29.4c-.44.12-.89.23-1.34.32a10.57 10.57 0 01-1.54.23l1.36-5c.23.13.64.36 1 .53s.76.35 1.15.51.79.29 1.19.45l1.22.37 1.23.3 1.25.21c.42.06.84.08 1.25.13a10.62 10.62 0 001.26.05 8.73 8.73 0 001.25 0c.41 0 .83 0 1.24-.1l1.22-.22a8.2 8.2 0 001.21-.29 10.37 10.37 0 001.2-.37l1.16-.46a7.81 7.81 0 001.13-.54l1.12-.59.11-.06a2.74 2.74 0 013.7 1.17 2.7 2.7 0 01.27 1.73c-.05.31-.12.81-.16 1.22s-.07.88-.09 1.32a23.25 23.25 0 000 2.64 21.75 21.75 0 00.83 5.09 13.94 13.94 0 002.15 4.31 11.28 11.28 0 001.61 1.68 10.5 10.5 0 00.92.69c.31.24.68.4 1 .61l-3.93 3.06c-.09-.68-.11-1.17-.14-1.73s0-1.07 0-1.6c0-1.06.12-2.11.25-3.15.08-.52.17-1 .25-1.55s.23-1 .34-1.53.28-1 .43-1.5l.22-.74.29-.72a14.75 14.75 0 01.58-1.43l.68-1.38c.24-.45.52-.88.78-1.32.14-.21.26-.43.4-.64l.46-.61c.31-.4.59-.81.92-1.19l1-1.09a8.69 8.69 0 011.08-1l1.11-.95-.86 1.18a8.11 8.11 0 00-.79 1.21l-.71 1.24c-.22.42-.39.87-.59 1.3l-.28.65c-.08.22-.15.44-.22.67-.14.45-.3.88-.42 1.33l-.31 1.36c-.11.44-.14.92-.21 1.37l-.1.68v.69c0 .46-.08.91-.06 1.37s0 .91 0 1.36l.09 1.36c.11.9.23 1.79.42 2.66.09.44.2.87.31 1.29a11.87 11.87 0 00.37 1.14 2.53 2.53 0 01-3.35 3.31l-.58-.25a15.12 15.12 0 01-1.49-.9 12.78 12.78 0 01-1.4-1 16.09 16.09 0 01-1.28-1.2 16.27 16.27 0 01-1.14-1.33 19 19 0 01-3-6.05 27.37 27.37 0 01-1.07-6.4q-.07-1.59 0-3.18 0-.79.12-1.59c.06-.55.11-1 .22-1.67l4.08 2.84-1.42.76a13 13 0 01-1.46.69l-1.51.6a14.57 14.57 0 01-1.55.48c-.53.13-1.05.31-1.59.39l-1.6.27c-.54.07-1.09.1-1.63.14a12.52 12.52 0 01-1.62 0 14.63 14.63 0 01-1.62-.07c-.53-.05-1.07-.09-1.6-.17l-1.59-.27-1.56-.38-1.53-.46c-.5-.19-1-.36-1.51-.57s-1-.42-1.47-.66a16.17 16.17 0 01-1.54-.83l-.23-.15a2.66 2.66 0 011.59-4.88 6.48 6.48 0 00.84-.07c.32-.05.66-.1 1-.17s.67-.14 1-.23l1-.3a21 21 0 002-.78c.33-.15.66-.28 1-.44l1-.52a25.18 25.18 0 003.63-2.46 28.49 28.49 0 003.24-3.08c.25-.28.52-.54.76-.83l.7-.89c.45-.6 1-1.18 1.35-1.81l1.25-1.86c.4-.66.77-1.39 1.16-2.08l2.36-4.23c.4-.72.89-1.38 1.33-2.07s.88-1.38 1.38-2c1-1.29 1.93-2.63 3-3.85l1.57-1.85 1.64-1.79c1.08-1.2 2.25-2.31 3.38-3.45s2.34-2.21 3.53-3.29 2.4-2.13 3.65-3.14 2.49-2 3.75-3 2.55-1.94 3.85-2.87 2.52-1.87 3.87-2.73zM305.16 330.43a102.7 102.7 0 01.27 11 97.25 97.25 0 01-.9 11 70.3 70.3 0 01-2.4 11c-.3.9-.59 1.8-.94 2.69s-.7 1.78-1.09 2.66-.81 1.76-1.3 2.61-1 1.7-1.5 2.54l-2.95-4.25.95-.31c.34-.11.67-.23 1-.36.67-.25 1.33-.53 2-.81s1.3-.59 1.94-.92c.32-.15.63-.32.94-.49s.63-.33.93-.51c.62-.36 1.22-.72 1.8-1.11.3-.19.58-.39.86-.6s.57-.39.84-.61l.8-.65c.27-.21.5-.45.76-.68a9.54 9.54 0 00.72-.7l.69-.72a2.74 2.74 0 014.49 3c-.07.17-.21.53-.3.81s-.21.62-.31.94c-.18.64-.35 1.3-.49 2a28.54 28.54 0 00-.57 4 19.88 19.88 0 00-.08 2v2.05c0 .68.12 1.35.19 2s.2 1.35.34 2 .3 1.33.46 2 .37 1.32.6 2 .47 1.29.72 1.93.53 1.26.84 1.88a35.73 35.73 0 002 3.61c.35.59.77 1.14 1.16 1.72s.84 1.11 1.25 1.67l-4.76 1c.25-.66.48-1.2.74-1.78s.51-1.13.79-1.68c.54-1.11 1.11-2.2 1.72-3.27a48.88 48.88 0 014.07-6.12 32 32 0 015.1-5.24q.72-.57 1.47-1.08c.5-.34 1-.65 1.55-.94a15 15 0 011.62-.78 17.81 17.81 0 011.68-.61c-.51.3-1 .57-1.51.91a16 16 0 00-1.41 1c-.44.38-.87.76-1.28 1.17s-.8.84-1.17 1.27a30 30 0 00-3.76 5.74 45.92 45.92 0 00-2.63 6.33c-.37 1.08-.69 2.17-1 3.26-.14.55-.28 1.1-.41 1.65s-.25 1.12-.32 1.59a2.45 2.45 0 01-4.39 1.48l-.38-.51c-.47-.63-1-1.25-1.42-1.89s-.92-1.29-1.33-2a40.25 40.25 0 01-2.33-4.16c-.36-.71-.66-1.45-1-2.19s-.6-1.48-.84-2.25-.48-1.52-.7-2.3-.4-1.55-.54-2.34-.28-1.58-.4-2.38-.18-1.6-.22-2.4-.08-1.6-.07-2.41 0-1.61.09-2.41a35.26 35.26 0 01.68-4.78c.17-.79.37-1.58.6-2.36.12-.4.24-.79.38-1.19s.27-.75.49-1.26l4.53 2.93-.88.93a11 11 0 01-.92.89c-.31.28-.62.58-.94.84l-1 .79c-.32.27-.67.49-1 .74s-.68.49-1 .71c-.69.46-1.39.88-2.09 1.29-.35.21-.72.39-1.07.59s-.72.39-1.08.56c-.73.37-1.46.71-2.2 1s-1.49.63-2.25.91c-.37.15-.76.29-1.14.42s-.76.26-1.23.4h-.06a2.7 2.7 0 01-2.88-4.27c.52-.65 1.06-1.29 1.54-2s1-1.4 1.41-2.12.88-1.48 1.27-2.26.78-1.55 1.16-2.34a65.17 65.17 0 003.56-10 98.46 98.46 0 002.21-10.59 100.48 100.48 0 001.23-10.88zM627.23 278.26a29 29 0 012.95 1.71c1 .64 1.87 1.31 2.78 2s1.76 1.46 2.62 2.23l1.25 1.2c.42.39.8.82 1.2 1.24s.79.85 1.16 1.29.76.88 1.12 1.34c.69.93 1.42 1.84 2.05 2.83.31.49.65 1 .95 1.47l.88 1.52c.3.51.55 1 .81 1.57l.77 1.59-3.57.06c.08-.31.19-.73.28-1.12l.25-1.2c.15-.81.27-1.63.36-2.45s.16-1.65.21-2.47v-1.24-1.24-1.23l-.08-1.23c-.09-.81-.15-1.63-.31-2.43-.07-.4-.12-.81-.21-1.2l-.27-1.19c-.16-.8-.43-1.57-.64-2.35v-.06a2.35 2.35 0 013.43-2.65l1.28.72 1.32.71c.88.47 1.78.93 2.67 1.37 1.81.87 3.62 1.71 5.46 2.43a36.51 36.51 0 005.53 1.76c.46.1.91.19 1.36.26s.9.11 1.34.14h1.26l.58-.08.54-.11-.31 3.51c-.58-.36-1.05-.68-1.54-1s-1-.7-1.43-1.07a46.37 46.37 0 01-2.7-2.32c-.44-.4-.85-.82-1.27-1.24s-.81-.86-1.22-1.29-.78-.88-1.16-1.34-.76-.9-1.1-1.38-.7-.95-1-1.44l-.95-1.49c-.32-.49-.57-1-.86-1.54a12.8 12.8 0 01-.79-1.57l-.69-1.61c-.2-.55-.38-1.1-.57-1.65l-.26-.83-.19-.85c-.13-.57-.25-1.13-.36-1.69l.73 1.56.36.77.43.74c.28.49.54 1 .83 1.47l.94 1.4c.3.47.65.91 1 1.36s.65.9 1 1.31l1.1 1.25 1.16 1.2c.37.41.78.78 1.19 1.16s.8.76 1.23 1.12.82.73 1.26 1.06l1.3 1c.88.66 1.78 1.3 2.7 1.9q.69.45 1.38.87c.46.28 1 .56 1.37.78a1.9 1.9 0 01-.28 3.5c-.31.1-.63.21-.95.3s-.63.14-.94.19l-.92.1h-.9c-.59 0-1.18 0-1.75-.08s-1.14-.12-1.68-.22a30.35 30.35 0 01-3.23-.73q-1.57-.43-3.09-1a62.48 62.48 0 01-5.89-2.47c-1-.46-1.9-.93-2.84-1.42-.46-.25-.93-.49-1.39-.76l-1.41-.8 3.41-2.72c.24.91.55 1.81.73 2.73l.29 1.38c.09.46.14.92.21 1.39.15.92.2 1.86.28 2.79v2.79c0 .47 0 .93-.06 1.39l-.1 1.39c-.1.92-.21 1.84-.38 2.75s-.35 1.82-.58 2.72c-.12.45-.23.9-.37 1.35s-.28.88-.48 1.39a1.91 1.91 0 01-2.46 1.13 2 2 0 01-1.11-1.07c-.41-1-.75-2-1.21-3l-.67-1.48c-.23-.49-.5-1-.75-1.45s-.49-1-.78-1.43l-.83-1.41-.89-1.38c-.29-.47-.61-.91-.93-1.36s-.63-.91-1-1.34l-1-1.32-1.06-1.28L632 283a52.18 52.18 0 00-4.77-4.74zM498.07 678.71l-.57 1.65c-.37 1-.88 2.57-1.47 4.39s-1.26 4-1.95 6.27l-1 3.55c-.32 1.22-.68 2.45-1 3.69s-.64 2.48-.91 3.71-.56 2.44-.78 3.62c-.11.59-.23 1.17-.34 1.73s-.18 1.13-.27 1.67l-.25 1.58-.17 1.49-.15 1.37-.06 1.24a15.6 15.6 0 000 2c.05 1.13.08 1.77.08 1.77l-.28-1.75a17 17 0 01-.2-2l-.08-1.26v-2.93l.07-1.62.08-1.71.15-1.79c.08-1.21.22-2.46.37-3.73s.31-2.55.48-3.84.39-2.56.57-3.83l.62-3.7c.43-2.39.85-4.62 1.24-6.53s.73-3.49 1-4.61l.39-1.75a2.35 2.35 0 114.58 1 1.83 1.83 0 01-.08.25zM476.92 672.23l-.07.22-.13.34-.45 1.18c-.4 1-1 2.41-1.64 4.12-1.37 3.39-3.19 7.92-5 12.45s-3.65 9.05-5 12.44c-.68 1.7-1.26 3.11-1.66 4.1l-.46 1.15-.12.3.08-.31c.08-.28.19-.69.32-1.2l1.16-4.27 3.49-13c1.27-4.71 2.53-9.42 3.48-13l1.13-4.26.3-1.18.07-.27a2.34 2.34 0 114.58.96zM457.8 660.3l-2.9 5.58c-1.73 3.36-4 7.85-6.21 12.37-1.1 2.27-2.19 4.54-3.19 6.68s-1.91 4.14-2.66 5.87-1.36 3.19-1.76 4.22l-.62 1.61.43-1.68c.28-1.07.71-2.59 1.26-4.4s1.23-3.92 2-6.17 1.56-4.64 2.4-7c1.68-4.77 3.43-9.52 4.76-13.07l2.25-5.92a2.34 2.34 0 114.38 1.67 1.75 1.75 0 01-.11.24zM441.89 646.25l-1.1 1.26c-.69.81-1.69 2-2.86 3.4-2.36 2.83-5.45 6.66-8.36 10.61-1.46 2-2.9 4-4.16 5.9l-.94 1.41-.85 1.38-.81 1.31-.7 1.26-.65 1.15-.52 1.07a18.74 18.74 0 00-.8 1.77l-.61 1.58.42-1.65a19 19 0 01.59-1.86l.4-1.15.51-1.23.56-1.35.65-1.41.7-1.49.77-1.54c1-2.08 2.25-4.26 3.48-6.43 2.46-4.32 5.1-8.54 7.14-11.67 1-1.57 1.87-2.86 2.48-3.77l1-1.43a2.35 2.35 0 113.88 2.64l-.16.21zM427.1 629.08l-4 4.54c-2.4 2.74-5.59 6.42-8.7 10.17-1.56 1.87-3.1 3.75-4.51 5.55s-2.72 3.47-3.79 4.95c-.55.73-1 1.41-1.45 2s-.8 1.14-1.07 1.6l-.89 1.42.71-1.52c.22-.49.54-1 .88-1.72s.75-1.4 1.2-2.2c.89-1.61 2-3.45 3.19-5.4s2.51-4 3.84-6.09c2.66-4.11 5.4-8.17 7.48-11.2l3.49-5a2.34 2.34 0 013.85 2.67 1.16 1.16 0 01-.16.21zM418.92 614.63s-1.93 1.34-4.8 3.45-6.65 5-10.34 7.95c-1.85 1.49-3.67 3-5.37 4.46l-2.41 2.12-2.11 1.95c-1.28 1.23-2.36 2.26-3.07 3l-1.13 1.18 1-1.31c.61-.85 1.55-2 2.68-3.4l1.88-2.21 2.15-2.42c1.52-1.66 3.15-3.41 4.82-5.13 3.34-3.44 6.78-6.78 9.39-9.25S416 611 416 611a2.34 2.34 0 113.13 3.48 1.74 1.74 0 01-.21.15zM414.55 601.22l-1.52.57c-1 .36-2.36.92-4 1.61s-3.58 1.53-5.61 2.48c-1 .48-2.08 1-3.13 1.5s-2.13 1.06-3.18 1.63-2.1 1.15-3.13 1.74-2 1.21-3 1.79-1.83 1.23-2.69 1.8-1.6 1.21-2.33 1.74-1.31 1.13-1.87 1.6c-.27.25-.54.46-.77.69l-.6.63-1.14 1.21 1-1.34.53-.71c.19-.25.44-.5.68-.78.5-.54 1-1.21 1.69-1.84s1.35-1.35 2.14-2 1.61-1.44 2.5-2.15 1.81-1.48 2.79-2.18 1.94-1.45 3-2.14 2-1.39 3-2 2-1.29 3-1.91c1.95-1.21 3.8-2.29 5.4-3.2s3-1.65 3.9-2.15l1.52-.79a2.34 2.34 0 012.16 4.16 1.12 1.12 0 01-.25.11zM597.81 632.36l1.29.4c.82.26 2 .65 3.35 1.12 2.75 1 6.39 2.3 10 3.8 1.78.75 3.55 1.55 5.19 2.32l2.34 1.17 2.07 1.1 1.7 1c.51.29.94.59 1.29.81l1.1.73-1.2-.55c-.38-.17-.83-.4-1.38-.6l-1.82-.72-2.18-.78-2.46-.78c-1.71-.51-3.55-1-5.4-1.48-3.69-.93-7.43-1.69-10.23-2.2-1.4-.25-2.57-.46-3.39-.58l-1.27-.2a2.35 2.35 0 01.71-4.64 2 2 0 01.29.08zM603.59 611.5s6.48 4 12.92 8c3.21 2 6.42 4 8.81 5.57l4 2.59-4.32-1.98c-2.59-1.15-6.07-2.66-9.55-4.14-7-3-13.95-5.87-13.95-5.87a2.35 2.35 0 011.8-4.34 2.4 2.4 0 01.29.17zM605 593.49s1.64.85 4 2.19 5.53 3.17 8.6 5.13c1.53 1 3.05 2 4.45 3l2 1.43 1.75 1.34c1.06.85 1.94 1.56 2.52 2.1l.93.83-1-.67c-.65-.44-1.64-1-2.8-1.65l-1.92-1-2.17-1.08c-1.52-.72-3.15-1.47-4.8-2.17-3.29-1.41-6.63-2.7-9.15-3.62s-4.19-1.46-4.19-1.46a2.34 2.34 0 111.45-4.46 2 2 0 01.34.14zM318.87 454.59a15.61 15.61 0 012 0c.64.08 1.43.12 2.31.3a29.33 29.33 0 012.95.65c.54.13 1.08.33 1.65.51s1.17.36 1.75.61l1.82.75c.61.27 1.21.6 1.84.9a42.89 42.89 0 013.72 2.15c1.24.79 2.4 1.72 3.6 2.6s2.27 1.92 3.31 3c.5.52 1 1 1.49 1.57s1 1 1.41 1.58c.86 1.09 1.66 2.16 2.4 3.19s1.31 2.1 1.86 3.05a19.55 19.55 0 011.38 2.67c.36.82.67 1.54.9 2.14.48 1.19.7 1.9.7 1.9s-.54-.53-1.39-1.48c-.43-.47-.93-1.05-1.5-1.72-.29-.33-.56-.7-.9-1.05l-1.05-1.13c-.73-.79-1.46-1.68-2.28-2.57s-1.73-1.79-2.62-2.76-1.92-1.84-2.88-2.83-2.05-1.85-3.09-2.79-2.15-1.76-3.25-2.59-2.18-1.63-3.31-2.3c-.55-.35-1.08-.72-1.62-1.05l-1.6-.93c-.52-.32-1-.6-1.54-.86s-1-.55-1.47-.76c-1-.45-1.83-.91-2.63-1.22s-1.51-.63-2.09-.86-1.06-.4-1.39-.49z" transform="translate(-187.54 -147.19)"/><path class="cls-20" d="M321 471.3s.88-.85 2.32-2c.72-.58 1.58-1.24 2.54-1.9s2-1.34 3.11-2c.55-.32 1.12-.58 1.68-.88l1.7-.75c.58-.2 1.14-.41 1.68-.58l1.57-.4 1.39-.22a7.67 7.67 0 011.11-.07h1a2 2 0 01.09 4 2.34 2.34 0 01-.38 0h-.21l-.69-.12a4.06 4.06 0 00-.81-.11l-1.11-.07-1.34.07-1.53.21c-.53.11-1.08.22-1.65.36s-1.13.3-1.69.49c-1.13.37-2.26.79-3.3 1.25s-2 .92-2.81 1.33c-1.67.73-2.67 1.39-2.67 1.39zM651.53 440.83l.1-.3c.08-.19.16-.46.32-.84.32-.75.74-1.77 1.34-3s1.34-2.56 2.23-4c.45-.7.91-1.43 1.42-2.15s1-1.43 1.56-2.13 1.12-1.38 1.68-2.05 1.17-1.28 1.73-1.9a44.27 44.27 0 013.33-3.08c.52-.41 1-.78 1.43-1.1s.83-.57 1.14-.8c.64-.43 1-.66 1-.66s-.26.36-.74 1c-.23.3-.53.65-.84 1.08s-.66.91-1 1.42L665 424l-1.28 2c-.85 1.36-1.76 2.79-2.57 4.28-.43.72-.83 1.47-1.23 2.2s-.78 1.45-1.13 2.16l-1 2-.88 1.83c-.52 1.14-1 2.1-1.26 2.74l-.47 1.07a2 2 0 01-3.64-1.45z" transform="translate(-187.54 -147.19)"/><path class="cls-20" d="M667.43 440.35a21.43 21.43 0 00-.45-2.2c-.16-.65-.38-1.4-.65-2.19-.14-.38-.27-.79-.45-1.18a12.39 12.39 0 00-.54-1.17 11.44 11.44 0 00-.62-1.09 8.65 8.65 0 00-.68-1c-.23-.29-.48-.52-.7-.77s-.48-.37-.68-.54-.43-.23-.6-.33a1.31 1.31 0 00-.46-.17l-.4-.13-.19-.06a2 2 0 011.24-3.79 2.19 2.19 0 01.49.23l.69.47a4.18 4.18 0 01.73.57c.25.25.54.52.81.84s.52.69.76 1.08.45.82.64 1.26.37.89.48 1.36a13.64 13.64 0 01.35 1.4 14 14 0 01.22 1.4c.07.46.09.91.13 1.34.06.87.06 1.68 0 2.36a20.43 20.43 0 01-.12 2.31zM602.81 542.88s-.45 2.25-1.38 5.58c-.45 1.67-1 3.6-1.7 5.66-.33 1-.71 2.08-1.08 3.16s-.78 2.16-1.21 3.23-.85 2.16-1.32 3.2-.91 2.09-1.39 3.07-.93 1.94-1.41 2.82-.9 1.75-1.36 2.5-.87 1.46-1.23 2.08-.75 1.12-1 1.56l-.91 1.36a2 2 0 01-3.25-2.17l.12-.16.07-.09 1-1.17c.3-.38.69-.82 1.11-1.36l1.37-1.83c.52-.66 1-1.45 1.55-2.24s1.08-1.67 1.64-2.57 1.11-1.85 1.66-2.82 1.08-2 1.62-3 1-2 1.53-3 1-2 1.39-3c.87-1.95 1.65-3.8 2.27-5.4 1.22-3.22 1.91-5.41 1.91-5.41zM587.19 699.73l-.15.61-.44 1.72c-.38 1.47-1 3.55-1.73 6-.4 1.23-.81 2.57-1.29 4s-1 2.87-1.55 4.38-1.18 3.07-1.78 4.64-1.32 3.15-2 4.73-1.41 3.13-2.18 4.63-1.47 3-2.29 4.41-1.51 2.77-2.32 4-1.48 2.45-2.23 3.49l-2 2.86c-.61.85-1.21 1.53-1.67 2.11l-1.48 1.82 1.32-1.94c.4-.62.94-1.34 1.47-2.23s1.11-1.9 1.76-3 1.22-2.35 1.9-3.64 1.27-2.71 1.94-4.14 1.24-3 1.88-4.51 1.15-3.15 1.74-4.73 1.07-3.21 1.56-4.79 1-3.16 1.36-4.69.8-3 1.14-4.41.64-2.75.92-4c.53-2.47.93-4.53 1.18-6 .12-.71.21-1.27.27-1.66l.1-.59a2.34 2.34 0 014.63.71 1.18 1.18 0 01-.06.22zM499.53 796.08l.19.56c.11.35.31.89.56 1.57s.57 1.52 1 2.47.84 2 1.35 3.17 1.1 2.41 1.72 3.72 1.31 2.7 2.07 4.1l1.13 2.15 1.22 2.17c.8 1.47 1.71 2.91 2.58 4.38s1.82 2.88 2.72 4.3 1.88 2.75 2.78 4.08 1.87 2.54 2.73 3.73 1.75 2.26 2.55 3.28 1.51 1.94 2.2 2.73 1.28 1.48 1.76 2l1.54 1.79-1.68-1.65-1.94-1.9c-.76-.73-1.54-1.61-2.44-2.55s-1.87-1.93-2.83-3.06-2-2.27-3.06-3.52-2.1-2.53-3.15-3.87-2.12-2.7-3.13-4.11-2.05-2.79-3-4.21l-1.43-2.1-1.34-2.09c-.89-1.36-1.69-2.72-2.46-4s-1.47-2.51-2.09-3.66-1.2-2.21-1.68-3.17-.89-1.79-1.23-2.48-.58-1.25-.76-1.66l-.25-.59a2.34 2.34 0 114.29-1.86 1.34 1.34 0 01.07.18zM648.36 390.11a2.7 2.7 0 01-2-.87 2.73 2.73 0 01.13-3.86l7.31-6.83a2.73 2.73 0 013.72 4l-7.3 6.83a2.75 2.75 0 01-1.86.73zM504.8 436.22a43.6 43.6 0 001-5.52c.11-.83.18-1.74.27-2.69s.12-2 .15-3 .05-2.12 0-3.21v-1.64l-.12-1.65c-.06-1.1-.21-2.19-.34-3.26s-.34-2.11-.5-3.11-.42-2-.63-2.87c-.11-.46-.2-.9-.32-1.32l-.36-1.21c-.24-.77-.43-1.49-.66-2.1l-.59-1.59-.52-1.37-.06-.16a2.74 2.74 0 015.14-1.92 1.74 1.74 0 01.11.39l.34 1.59c.11.51.24 1.12.38 1.82s.23 1.51.36 2.38l.2 1.35c.05.47.08 1 .12 1.46.07 1 .2 2.05.2 3.14s.09 2.21 0 3.35-.05 2.29-.16 3.44c-.05.57-.09 1.14-.14 1.71l-.21 1.69c-.12 1.12-.33 2.21-.5 3.27s-.41 2.06-.62 3-.44 1.85-.69 2.67a43.9 43.9 0 01-1.85 5.36z" transform="translate(-187.54 -147.19)"/><ellipse class="cls-20" cx="588.2" cy="509.67" rx="5.63" ry="2.86" transform="rotate(-12.75 -164.41 1275.257)"/><ellipse class="cls-20" cx="467.93" cy="519.33" rx="2.86" ry="5.63" transform="rotate(-77.42 282.351 562.744)"/><path class="cls-20" d="M565.78 528.9s-3.67-1-6.13 0c-7.45 3.15-6.28 5.16-14.14 8.24-6.72 2.65-16.1 3.16-24.38 3.08-7.85-.08-14.63-.62-20.19-3.16 0 0-8.33-4.68-14.75-6.37 0 0 19.21 18 45.69 14 19.6-2.87 33.9-15.79 33.9-15.79zM459.21 559.38l.37.45c.24.29.63.69 1.08 1.22s1 1.14 1.73 1.84 1.46 1.45 2.3 2.29c.41.42.89.83 1.35 1.26s.93.9 1.46 1.34l1.56 1.37 1.68 1.39c1.11 1 2.35 1.86 3.56 2.81.6.49 1.25.92 1.88 1.38l1.91 1.38 3.91 2.59c1.33.79 2.63 1.6 3.88 2.38s2.54 1.43 3.72 2.11c.58.36 1.18.63 1.75.93l1.65.88c1.06.54 2 1.11 2.9 1.51s1.63.81 2.26 1.13c1.26.64 2 1 2 1s-.8-.14-2.18-.46c-.69-.16-1.53-.35-2.48-.6a30.61 30.61 0 01-3.17-1c-1.15-.41-2.42-.78-3.69-1.35s-2.64-1.13-4-1.77-2.74-1.46-4.15-2.24-2.74-1.72-4.1-2.61-2.66-1.9-3.89-2.94-2.45-2.05-3.53-3.13c-.54-.54-1.1-1-1.6-1.59l-1.45-1.6c-1-1-1.76-2.08-2.5-3s-1.38-1.89-1.9-2.74-.95-1.6-1.3-2.21a19.71 19.71 0 01-1.01-2.02zM504.66 723.93a1 1 0 01-.29 0c-28.21-7-52.48-17.56-72.14-31.3a141.45 141.45 0 01-38.17-38.88c-16.34-25.24-17.46-46.38-17.5-47.27a1.17 1.17 0 112.33-.1c0 .21 1.17 21.5 17.21 46.22 14.81 22.82 45.72 53.33 108.84 69.06a1.17 1.17 0 01-.28 2.31zM588.62 709.79a1.17 1.17 0 01-.84-.36 1.18 1.18 0 010-1.66 132 132 0 0040.1-78.51c3-22.67-.72-39.17-.75-39.33a1.16 1.16 0 01.87-1.4 1.17 1.17 0 011.41.87c0 .17 3.84 17 .8 40.07a134.37 134.37 0 01-40.81 80 1.15 1.15 0 01-.78.32zM544.25 343.27s-.21.45-.61 1.2c-.2.37-.42.84-.68 1.37s-.54 1.1-.83 1.76-.59 1.35-.91 2.1-.59 1.56-.92 2.37-.6 1.68-.85 2.57-.51 1.78-.76 2.68-.44 1.82-.6 2.72-.31 1.8-.46 2.67-.26 1.71-.32 2.52-.15 1.57-.19 2.28-.08 1.37-.1 2 0 1.09 0 1.52v1.34s-.17-.46-.42-1.28a12.82 12.82 0 01-.39-1.5c-.06-.3-.13-.61-.2-.94s-.1-.68-.15-1.05-.11-.75-.14-1.14 0-.81-.07-1.24a26.32 26.32 0 010-2.67 28.44 28.44 0 01.3-2.85c.11-1 .36-1.94.56-2.91s.52-1.92.88-2.83.71-1.8 1.09-2.65.82-1.63 1.27-2.35c.22-.37.43-.72.65-1.06s.45-.64.67-.94.41-.59.62-.85l.63-.74a12.28 12.28 0 011-1.13c.56-.64.93-.97.93-.97zM501.3 350.59s.41.21 1.1.63a13.75 13.75 0 011.21.82 15.17 15.17 0 011.51 1.17 22.37 22.37 0 011.67 1.52c.58.55 1.14 1.18 1.72 1.84s1.13 1.38 1.64 2.14 1 1.56 1.51 2.35.91 1.64 1.28 2.49.71 1.68 1 2.49.54 1.64.73 2.42a18.56 18.56 0 01.47 2.2 16.63 16.63 0 01.26 1.89 14 14 0 01.09 1.46v1.27s-.18-.43-.46-1.18-.67-1.82-1.18-3.07c-.24-.63-.54-1.3-.83-2s-.67-1.43-1-2.19-.74-1.53-1.15-2.29-.84-1.55-1.26-2.32-.89-1.53-1.37-2.26-.95-1.44-1.4-2.14-.93-1.36-1.4-2-.89-1.21-1.31-1.73-.8-1-1.15-1.45-.64-.81-.91-1.11c-.49-.54-.77-.95-.77-.95zM407.08 392.91a27.78 27.78 0 011.87-2.44c.64-.75 1.42-1.66 2.38-2.63s2.06-2.07 3.35-3.16a53.27 53.27 0 019.5-6.64c.93-.53 1.92-1 2.9-1.49s2-.94 3.07-1.31l1.59-.59c.53-.19 1.08-.35 1.62-.52 1.08-.37 2.2-.63 3.31-.92s2.25-.44 3.38-.64 2.26-.31 3.39-.37a31.42 31.42 0 013.35-.11c1.11 0 2.2 0 3.27.16a29 29 0 013.14.38c1 .18 2 .33 2.95.59l1.41.35a11.66 11.66 0 011.35.38l2.51.85c.79.31 1.54.63 2.25.93a21.8 21.8 0 012 .93c1.21.64 2.29 1.15 3.11 1.7 1.67 1 2.59 1.66 2.59 1.66s-1.06-.38-2.86-1.1l-.71-.28-.8-.27-1.79-.6a19 19 0 00-2-.62l-2.27-.64c-1.6-.34-3.33-.74-5.17-1-.92-.17-1.88-.24-2.85-.33-.48 0-1-.11-1.47-.13l-1.5-.06a48.28 48.28 0 00-6.21.21c-1.05.07-2.11.27-3.17.4s-2.11.39-3.15.64-2.1.48-3.12.82l-1.54.46-1.5.54c-.51.17-1 .36-1.49.56l-1.46.58c-.95.43-1.92.81-2.82 1.28-1.84.88-3.57 1.82-5.19 2.76s-3.13 1.91-4.48 2.85a88.217 88.217 0 00-6.38 4.81c-.74.63-1.33 1.12-1.71 1.48zM564.65 380.55a27.22 27.22 0 011.68-2.27c.57-.69 1.27-1.53 2.14-2.43s1.86-1.92 3-2.94a44.42 44.42 0 013.9-3.15 42.66 42.66 0 014.73-3 46.64 46.64 0 015.46-2.61c1-.34 1.94-.74 3-1l1.51-.44 1.54-.36c1-.25 2.09-.36 3.12-.54s2.1-.2 3.13-.26a34.77 34.77 0 016.09.34 21.59 21.59 0 012.86.52 26.92 26.92 0 012.68.73c.85.3 1.7.52 2.47.87l2.23 1c.7.35 1.36.7 2 1a16.45 16.45 0 011.73 1c1 .7 2 1.25 2.68 1.84 1.41 1.11 2.19 1.76 2.19 1.76s-.94-.43-2.52-1.23a12.9 12.9 0 00-1.33-.62c-.49-.2-1-.44-1.57-.69a18 18 0 00-1.81-.71c-.65-.23-1.31-.51-2-.75-1.43-.42-3-.9-4.63-1.25-.82-.22-1.68-.31-2.56-.46s-1.77-.23-2.68-.31a39.09 39.09 0 00-5.63 0c-1 .07-1.92.18-2.88.3s-1.92.28-2.87.52l-1.43.32-1.41.39c-.94.25-1.85.59-2.77.88a52.62 52.62 0 00-5.25 2.21c-1.66.81-3.25 1.67-4.72 2.53s-2.84 1.76-4.08 2.62-2.35 1.67-3.33 2.42-1.81 1.42-2.49 2-1.22 1-1.57 1.34zM572.24 601.27l-.4.4c-.29.29-.65.62-1.17 1.05l-.84.67-1 .73c-.36.27-.77.5-1.19.78s-.86.55-1.33.81l-1.48.83-1.62.79c-.55.28-1.14.53-1.74.78s-1.2.51-1.82.75l-1.93.69c-.64.23-1.3.46-2 .64-1.34.39-2.7.81-4.09 1.1l-2.07.48c-.69.16-1.38.25-2.07.38-1.37.23-2.71.49-4 .62s-2.58.33-3.79.42l-3.4.22c-.52 0-1 .08-1.51.09h-5.5l1.92-.16 2.2-.18 1.36-.12 1.49-.19 3.36-.46c1.18-.17 2.42-.44 3.71-.68s2.59-.56 3.92-.88c.67-.17 1.34-.31 2-.51l2-.61c1.33-.38 2.62-.88 3.9-1.35.64-.22 1.26-.48 1.87-.76l1.8-.78c.59-.28 1.15-.57 1.7-.85s1.09-.54 1.59-.85l1.48-.85 1.33-.87c.43-.27.82-.56 1.19-.84s.73-.52 1-.79l.87-.73.71-.64c.4-.39.73-.73.89-.92s.29-.33.29-.33a1.57 1.57 0 112.45 1.95zM425.27 573.41s.83.47 2.2 1.42c.67.49 1.5 1.07 2.41 1.8s1.92 1.54 3 2.47 2.24 2 3.39 3.13l1.8 1.76c.6.61 1.19 1.26 1.81 1.9s1.22 1.32 1.83 2 1.22 1.38 1.83 2.09c1.2 1.44 2.39 2.93 3.56 4.42s2.29 3 3.35 4.59 2.06 3.08 3 4.57 1.82 3 2.65 4.4 1.53 2.78 2.2 4 1.27 2.42 1.75 3.47.9 2 1.24 2.73c.67 1.52 1 2.4 1 2.4s-.59-.75-1.56-2.09c-.49-.67-1.08-1.48-1.73-2.43s-1.43-2-2.24-3.14-1.7-2.4-2.64-3.71-2-2.67-3-4.11-2.15-2.85-3.22-4.35l-3.36-4.46-3.43-4.4c-1.11-1.37-2.11-2.87-3.29-4.17s-2.19-2.67-3.24-3.89l-2.95-3.44c-.95-1-1.78-2-2.56-2.87l-2-2.2c-.57-.59-1-1.08-1.32-1.4z" transform="translate(-187.54 -147.19)"/><path class="cls-23" d="M421.34 421.83s3.66-12.33 19.15-18.93c13.66-5.83 25.41 3.59 30.82 7.71 0 0-1.66-27.88-30.82-25.32 0 0-29.49 6.28-19.15 36.54zM574.52 412a24.43 24.43 0 0117.42-18.93c13.18-3.83 23.12 3.59 28 7.71 0 0-1.51-27.87-28-25.32 0-.01-26.87 6.27-17.42 36.54z" transform="translate(-187.54 -147.19)"/><circle class="cls-5" cx="267.12" cy="254.09" r="8.03"/><circle class="cls-5" cx="416.29" cy="244.61" r="7.44"/><path class="cls-20" d="M488.71 416.12c-.46-1-1-2.13-1.62-3.17s-1.2-2.09-1.85-3.11A58.18 58.18 0 00481 404a53.41 53.41 0 00-4.85-5.22 44.83 44.83 0 00-5.46-4.41 39.42 39.42 0 00-6-3.38 34.66 34.66 0 00-6.47-2.17 31.91 31.91 0 00-3.36-.59c-1.12-.16-2.26-.25-3.39-.3h-3.48c-.57 0-1.07.07-1.64.13s-1.12.11-1.68.21a37.2 37.2 0 00-12.78 4.36 45.59 45.59 0 00-5.76 3.77 58.26 58.26 0 00-5.25 4.59 65.52 65.52 0 00-4.75 5.22q-2.26 2.73-4.28 5.69c-1.36 2-2.65 4-3.84 6.05-.59 1-1.17 2.08-1.72 3.14s-1.11 2.15-1.54 3.1l-1.16-4.11c.2.17.55.43.86.65l1 .68c.67.45 1.36.88 2.06 1.3 1.4.85 2.86 1.63 4.33 2.37s3 1.44 4.54 2.06 3.11 1.22 4.69 1.76 3.2 1 4.82 1.44 3.26.81 4.92 1.12c.82.17 1.65.33 2.49.45s1.66.29 2.5.38l2.52.3 2.53.2c.85.09 1.7.09 2.55.13s1.69.08 2.54.07h2.56l2.55-.1c.85 0 1.7-.09 2.56-.17s1.7-.13 2.55-.23c1.69-.23 3.4-.38 5.09-.7l2.54-.44 2.52-.53c1.69-.33 3.35-.8 5-1.23s3.3-1 5-1.47 3.26-1.14 4.9-1.71c-1.58.71-3.15 1.44-4.75 2.12s-3.2 1.33-4.85 1.9-3.27 1.18-5 1.66l-2.5.76-2.53.65c-1.69.48-3.41.78-5.12 1.16-.86.17-1.73.3-2.59.45s-1.73.3-2.6.4l-2.62.33-2.63.23c-.88.08-1.76.12-2.64.15s-1.76.1-2.65.09h-2.65l-2.65-.09c-.89 0-1.77-.12-2.66-.17s-1.77-.14-2.65-.25c-1.77-.18-3.53-.45-5.29-.75s-3.5-.67-5.24-1.1-3.47-.9-5.18-1.45-3.41-1.15-5.09-1.8-3.34-1.4-5-2.2c-.82-.41-1.63-.83-2.45-1.28-.4-.23-.81-.45-1.21-.7s-.79-.47-1.29-.81a3.32 3.32 0 01-1.25-3.88l.09-.24c.27-.71.51-1.28.77-1.9s.52-1.21.8-1.8c.55-1.18 1.13-2.35 1.74-3.5 1.22-2.3 2.52-4.56 3.94-6.75s3-4.3 4.6-6.35a71.62 71.62 0 015.29-5.88 58.06 58.06 0 016-5.24 51.77 51.77 0 016.81-4.35 46 46 0 017.52-3.16 41.39 41.39 0 018-1.7c.68-.08 1.36-.13 2-.18s1.42-.06 2.1-.08h1.98c.67 0 1.35.05 2 .11a39.87 39.87 0 018 1.4 41.44 41.44 0 0114.35 7.28 46.64 46.64 0 015.85 5.37A55.08 55.08 0 01485 401a61.9 61.9 0 014 6.68 48.76 48.76 0 013.06 7.17 1.75 1.75 0 01-1.12 2.23 1.77 1.77 0 01-2.16-.93zM561.25 408a43.76 43.76 0 011.2-6.74 58.32 58.32 0 012.06-6.5 44.44 44.44 0 016.94-12 34.45 34.45 0 015.06-5 33.21 33.21 0 016.1-3.92 32.83 32.83 0 016.82-2.5c.31-.07.56-.14.92-.21l.8-.18.8-.17.87-.16c1.18-.22 2.31-.39 3.47-.54a46 46 0 017.06-.36 37.68 37.68 0 017.2.83 32 32 0 017 2.41 29.15 29.15 0 016.29 4.09 31.12 31.12 0 015 5.48 36.27 36.27 0 013.62 6.33 41.12 41.12 0 012.32 6.78c.29 1.15.52 2.32.72 3.49.09.59.17 1.18.23 1.78l.09.91c0 .32 0 .58.07 1v.11a3.33 3.33 0 01-.77 2.3c-.35.4-.59.64-.89.94s-.56.56-.85.82c-.56.54-1.14 1-1.72 1.55-1.17 1-2.37 1.92-3.6 2.81a60.37 60.37 0 01-7.71 4.7 59.16 59.16 0 01-16.9 5.65 60.38 60.38 0 01-17.45.3 73 73 0 01-16.78-4.17 71.52 71.52 0 0016.9 2.42 57.83 57.83 0 0016.66-2.08 54.61 54.61 0 0021.55-11.73c1-.9 2-1.84 2.92-2.8.46-.49.91-1 1.34-1.48l.62-.74c.19-.23.43-.53.53-.68l-.77 2.4-.09-.62-.12-.71c-.08-.48-.18-1-.29-1.45q-.32-1.45-.75-2.88a36.88 36.88 0 00-2.11-5.51 27.06 27.06 0 00-6.79-9 23.58 23.58 0 00-4.64-3 24.18 24.18 0 00-5.32-1.88 31.11 31.11 0 00-5.76-.81 46.29 46.29 0 00-6 .14c-1 .09-2 .2-3 .35l-.74.1-.81.14-.8.14-.69.14a28.07 28.07 0 00-5.52 1.73 28.88 28.88 0 00-9.52 6.75 38.77 38.77 0 00-3.79 4.72 47.09 47.09 0 00-3.13 5.33 53.72 53.72 0 00-2.51 5.75c-.36 1-.69 2-1 3s-.6 2-.82 3v.07a1.77 1.77 0 01-2.12 1.32 1.75 1.75 0 01-1.4-1.96z" transform="translate(-187.54 -147.19)"/><path class="cls-20" d="M460.42 433.25a2.14 2.14 0 012.26-.74l.42.09h.18a28.59 28.59 0 10-32.37 2.8 2.15 2.15 0 011.94-.56 57.16 57.16 0 0026.53-1.56 2.07 2.07 0 011.04-.03zm-15.36 1.26a23.91 23.91 0 1123.94-23.9 23.93 23.93 0 01-23.94 23.9zM614.08 380.29a24.26 24.26 0 00-17.51-8.78c-14-.64-25.76 10.93-26.45 25.82a27.38 27.38 0 0011.63 24 2.2 2.2 0 01.83-.19c3.75-.18 7.52-.2 11.27-.37-11.1-.77-19.61-11.08-19.05-23.22s9.63-21.38 20.67-21.38h.88a19.64 19.64 0 0114.16 7.14 23.2 23.2 0 015.35 16.11c-.48 10.39-7.36 18.83-16.36 20.9a37.28 37.28 0 0014.93-4.56l.32-.15a28.21 28.21 0 005.78-16 27.85 27.85 0 00-6.45-19.32z" transform="translate(-187.54 -147.19)"/></g></g></svg>
