<svg xmlns="http://www.w3.org/2000/svg" viewBox="0 0 1842.23 1709.95">
    <defs>
    <style>.teal{fill:#0F766E}.white{fill:#fff;opacity:.25}.cyan{fill:#06B6D4}</style>
    </defs>
    <g id="Background">
        <path class="teal" d="M600.39 1436.66a18.62 18.62 0 016.65-1.38l27.78-.49a159.55 159.55 0 01-15.18-34.46c-18.85-61.84 5.8-118 16.21-138.67l-1.27-1.06a1786.19 1786.19 0 01-211.5 63c-4.88 1.13-33.35 7.39-71.12 14.89-24.09 4.79-44.58 8.59-60 11.37-11.21 38.07-29.46 101.07-21.75 174.55a398.18 398.18 0 01330.14-87.75zM529.56 1591.2a105.59 105.59 0 0114.18-2.16l44.72-.41q.06-25 .13-49.94c-103.47 11.87-177 35.36-248.13 97.14a437.744 437.744 0 00-24.69 23.2c60 98.6 155.46 138.49 180.05 148a220.89 220.89 0 01-18.43-78.32c-2.72-61.01 20.61-129.87 52.17-137.51zM606.41 1230.41c-15.3-21-25.94-45.31-32.18-70.94A639.76 639.76 0 01424 1134.73c-36.88 35.45-83.42 90.63-115.08 167.11 48.75-7.27 101.46-17.23 157.3-30.88 50.51-12.35 97.32-26.19 140.19-40.55zM799 728.38c1.73-22.33 13.41-38.48 17.79-44.36 4.62-6.22 19.8-26.59 46.77-32.41 2-.42 3.84-.74 5.65-1a3.88 3.88 0 001.31-7.3l-37.44-19.52c-14.37-6.52-20-21.56-15.38-31.63s18-11.67 18.77-11.75c-2.08-5-7.35-19.56-.75-31.84 11.22-20.85 46.83-16.66 53.67-15.85 22.69 2.67 39.34 14.79 49.18 24.11a5.63 5.63 0 009.41-3.24c3.19-19.72 6.35-36.8 9.1-50.72 4.66-23.6 7.16-33.16 13.44-44.64 6.52-11.92 13.12-23.06 26.25-31.05 9.79-5.95 20.53-8.41 21.45-15.59.51-4-2.28-7.37-3.28-8.62-8-10-23.62-35.66-45.33-73.64q-2.49-.47-5.13-1.23a58.31 58.31 0 01-22-12.24c-134.5 34.09-446.89 136-600.19 418.71C329.57 758 309.7 794.64 298 837.1a1349.76 1349.76 0 00214.5-20.8c117.18-21.02 207.89-53.45 286.5-87.92zM1492.59 566.41c69.56-9.71 186.57-27.42 302.91-110.51 36.55-26.1 91.06-71.56 142-144.73-150-124.91-476.34-145.68-773.4-62.36a91.37 91.37 0 014.37 30.25c20.06 11.93 26.54 47.05 5.19 67.22-7.46 9.4 2 24 2.77 34.82a11.05 11.05 0 0010.87 8.62c123.26 3.36 126.26 88.48 116.39 181.15 53.04 1.5 104.86 7.28 188.9-4.46zM2049 1135c18 7.68 32.29 14.65 40.49 18.76-35.48-138.8-113.48-259.92-224.82-355.06 129.11-146.68 171-266.46 152.53-359.33 0 1.31.09 2.62.11 3.9-21.94 44.49-56.61 96.94-112.29 137.93-112 82.49-213.89 48.45-343.26 86.66-112.23 33.15-140.59 89.68-206 166.69l-55.11.08 494.47-.78a25.39 25.39 0 0125.43 25.09l1.17 97.35a23 23 0 01-2.58 10.92l.08-.14c77 7 147.25 16.4 206 25.9q8.51 15.2 16.17 30.69c-98.46-7.15-232.85-15.22-378.88-15.31a12.49 12.49 0 00-8.66 9.18c-5.37 21.93-9.52 58.14-3.52 94.55 128.67-33.86 258.6-37.01 398.67 22.92zM1704.29 989.24v.26zM1967.33 1364.75c-74-25.67-144.24 7.48-205 34.35 4.45 2.22 7.51 6.58 8 15a11 11 0 0011.29 11l78.67-2.29a22.89 22.89 0 0123.55 22.62c.31 23.39 5.34 51.41-28.33 49.86-18.67 1.36-7.64 55.41-4.2 62.94 1.69 5.25 7.13 7.83 12.41 7.39a21.88 21.88 0 0121.34 21.61l.3 24.92a21.87 21.87 0 01-21.41 22.14l-105.56 2.25a7.65 7.65 0 00-7.47 8.09 11 11 0 01-10.59 11.34l-27.7 1c-15.36.79-14.22 38.47-14.08 56.87 2.49 21.1 7.42 58.62 23.31 59.08 32.73-1.94 37 5.83 35.88 37a524.87 524.87 0 00326.39-353.55c-25.91-35.37-63.69-73.19-116.8-91.62zM1340.3 1135.37l-53.9 1.46c-2.39.07-4.26 1.85-4.11 3.93.07.93.13 1.85.2 2.78a4.06 4.06 0 004.38 3.47l54-1.54c2.46-.07 4.33-1.93 4.1-4.06-.1-.9-.2-1.8-.31-2.7a4.08 4.08 0 00-4.36-3.34zM1424.91 1103.56l57.95-1.92a4.61 4.61 0 004.4-4.66v-.81a4.61 4.61 0 00-4.65-4.67l-58 1.36a4.62 4.62 0 00-4.43 4.94c0 .46 0 .92.08 1.37a4.59 4.59 0 004.65 4.39zM1321.2 1035.63l59.9-1.57c2.66-.8 4.3-2.92 4-5.07a5.3 5.3 0 00-4.16-4l-60.35 1.62a5.7 5.7 0 00-2.53 4c-.23 3.06 2.94 4.92 3.14 5.02zM1167.54 1442.76l.23 7.92a3.11 3.11 0 003.17 3l569.48-13.36q.11-6.43.2-12.86a4.09 4.09 0 00-4.21-4.15l-565.86 16.25a3.1 3.1 0 00-3.01 3.2zM1151.4 1453.85a4 4 0 004-4.19l-.36-7.94a4 4 0 00-1-2.42c-8.13-9.49-42.72-53-33.57-111.18 5.15-32.75 21.86-55.36 31.22-66.16a4 4 0 001-2.64l-.06-8.84a4 4 0 00-4-4l-459.08 3c-7.19 7.53-40.26 43.78-40.41 100.31-.15 58.15 34.65 95.2 41.64 102.35zM1163 1249.29l-.06 7.07a3.14 3.14 0 003.23 3.16l558.46-14.7a3 3 0 002.89-3.09l-.39-11a3 3 0 00-3.07-2.87l-558 18.27a3.13 3.13 0 00-3.06 3.16zM1231.87 1836.66l-3-82.72a6.7 6.7 0 00-6.28-6.52c-5.2-.27-10.75-.37-16.62-.22-6.77.17-13.11.65-19 1.31a4.86 4.86 0 00-4.24 5q.9 49.1 1.79 98.2a11.08 11.08 0 005.24 9.25l45.54 27.9a2.62 2.62 0 004-2q.75-7.56 1.51-15.12a9.21 9.21 0 019.51-8.4l16.19.72a1.08 1.08 0 00.57-2l-31-18.29a8.53 8.53 0 01-4.21-7.11zM593.45 1623.51a349 349 0 00-4.62 180.3l24.93 1.85a355 355 0 013.07-181.85z" transform="translate(-268.4 -198.79)" />
        <path class="teal" d="M1561.8 667.81c129.37-38.21 231.23-4.17 343.26-86.66 55.68-41 90.35-93.44 112.29-137.93 0-1.28-.06-2.59-.11-3.9-10.06-50.75-38.13-93.46-79.78-128.15-50.9 73.17-105.41 118.63-142 144.73-116.3 83.1-233.31 100.8-302.87 110.51-84 11.74-135.86 6-188.94 4.46-1.9 17.86-4.28 36-6.37 53.88-1.08 10.09-2.06 19.29-2.77 26a71.65 71.65 0 0135.36 14.07 78 78 0 0132.28 47.78 72.55 72.55 0 01.78 35.54 90.25 90.25 0 01-11 31.21A143.3 143.3 0 011328.5 811a152.46 152.46 0 01-27.85 23.5l55.11-.08c65.45-76.93 93.81-133.42 206.04-166.61zM574.23 1159.47c-11.4-46.92-8-98.14 8.7-140.89a207.16 207.16 0 0112.9-27l-42.51.72a26.9 26.9 0 01-23.89-13.72c-1.59-2.82-3-5.56-4.15-8.18-17.41-38.33-14.17-92.31 15.59-116.93l.11-.09a29.37 29.37 0 0118.28-6.59l306.26-4.2a5.07 5.07 0 003.18-9 602.123 602.123 0 01-23-20.37c-28.91-26.9-35-37.75-38.16-44.31-3-6.29-7.71-16.43-8.61-30.36a70.6 70.6 0 01.07-10.2c-78.6 34.47-169.31 66.9-286.54 87.92A1349.76 1349.76 0 01298 837.1c-11.59 41.86-15.28 89.36 3.6 135.34 34.19 83.25 124.39 117.68 160.33 129.22-10.07 8-23.22 18.95-37.91 33.07a639.76 639.76 0 00150.26 24.74zM588.59 1538.69q.12-42.45.23-84.9a18.54 18.54 0 0111.57-17.13 398.18 398.18 0 00-330.14 87.75 320.76 320.76 0 0026.5 98.45 329.38 329.38 0 0019 36.17c7.74-7.85 16-15.61 24.69-23.2 71.15-61.78 144.68-85.27 248.15-97.14zM2025.25 992.92c-58.77-9.5-129-18.86-206-25.9l-.08.14c-.19.37-.39.74-.6 1.1-.12.2-.25.4-.38.6s-.21.34-.32.5-.3.45-.46.67-.16.23-.25.34c-.35.48-.73 1-1.12 1.4l-.1.12-.63.68-.26.27c-.22.22-.43.44-.65.64l-.08.07c-.42.4-.87.78-1.33 1.15l-.46.37-.57.41-.68.47-.42.28c-.37.24-.76.46-1.14.68l-.34.17c-.34.19-.69.36-1 .53l-.24.11a21.39 21.39 0 01-2.83 1.07h-.12a24.15 24.15 0 01-3.08.7c-.49.08-1 .13-1.48.18h-.24c-.51 0-1 .07-1.56.08l-86.36 1.11a8.2 8.2 0 00-8.09 8.32V991.07c0 .32-.06.46-.08.7s-.08.67-.14 1-.11.47-.16.71-.13.63-.22.93-.17.5-.25.75-.18.56-.29.83-.23.53-.35.8-.21.47-.33.7-.31.56-.48.84-.21.4-.34.59-.39.57-.6.85-.22.33-.34.49-.48.56-.72.83-.23.28-.36.41-.53.52-.8.77-.25.25-.39.37-.57.46-.86.68l-.43.34c-.29.2-.58.38-.88.57s-.34.23-.52.33-.56.29-.85.44l-.63.32c-.26.12-.53.21-.79.31s-.51.22-.77.31l-.7.2c-.31.09-.62.19-.94.26l-.59.11c-.36.07-.73.14-1.1.19a16.56 16.56 0 01-1.74.13 57.67 57.67 0 01-8.12.21l-13.25.34h-.29a21.25 21.25 0 00-3.39.82c146 .09 280.42 8.16 378.88 15.31q-7.8-15.39-16.31-30.59zM2089.53 1153.71a745.32 745.32 0 00-40.49-18.76c-140.11-59.88-270-56.73-398.68-22.92 4.5 18.89 9.35 62.35 27.62 61.92 15.78-.86 32.92.62 34.07 20.27 1.19 10.54 14.83 4.94 21.87 5.68a20.38 20.38 0 0121.37 19.9c-.54 18.23 7.78 49.73-18.93 51.63-11.61-.31-25.41.92-28.49 14.56-8.09 23.91-4.73 76.45 8.51 101.37 7.67 17.31 32.86 5.2 46 11.74 60.73-26.87 131-60 205-34.35 53.11 18.43 90.89 56.27 116.86 91.58 30.37-94.33 37.64-198.71 5.29-302.62zM423.08 1323.6a1786.19 1786.19 0 00211.5-63 170.79 170.79 0 01-17.88-17.39c-3.64-4.1-7.07-8.38-10.29-12.8a1747.17 1747.17 0 01-297.52 71.43 469.45 469.45 0 00-16.53 46.79l-.36 1.23c15.38-2.78 35.87-6.58 60-11.37 37.73-7.49 66.2-13.76 71.08-14.89z" transform="translate(-268.4 -198.79)" />
    </g>
    <g id="Color">
    <path
      class="white"
      d="M1561.8 667.81c129.37-38.21 231.23-4.17 343.26-86.66 55.68-41 90.35-93.44 112.29-137.93 0-1.28-.06-2.59-.11-3.9-10.06-50.75-38.13-93.46-79.78-128.15-50.9 73.17-105.41 118.63-142 144.73-116.3 83.1-233.31 100.8-302.87 110.51-84 11.74-135.86 6-188.94 4.46-1.9 17.86-4.28 36-6.37 53.88-1.08 10.09-2.06 19.29-2.77 26a71.65 71.65 0 0135.36 14.07 78 78 0 0132.28 47.78 72.55 72.55 0 01.78 35.54 90.25 90.25 0 01-11 31.21A143.3 143.3 0 011328.5 811a152.46 152.46 0 01-27.85 23.5l55.11-.08c65.45-76.93 93.81-133.42 206.04-166.61zM574.23 1159.47c-11.4-46.92-8-98.14 8.7-140.89a207.16 207.16 0 0112.9-27l-42.51.72a26.9 26.9 0 01-23.89-13.72c-1.59-2.82-3-5.56-4.15-8.18-17.41-38.33-14.17-92.31 15.59-116.93l.11-.09a29.37 29.37 0 0118.28-6.59l306.26-4.2a5.07 5.07 0 003.18-9 602.123 602.123 0 01-23-20.37c-28.91-26.9-35-37.75-38.16-44.31-3-6.29-7.71-16.43-8.61-30.36a70.6 70.6 0 01.07-10.2c-78.6 34.47-169.31 66.9-286.54 87.92A1349.76 1349.76 0 01298 837.1c-11.59 41.86-15.28 89.36 3.6 135.34 34.19 83.25 124.39 117.68 160.33 129.22-10.07 8-23.22 18.95-37.91 33.07a639.76 639.76 0 00150.26 24.74zM588.59 1538.69q.12-42.45.23-84.9a18.54 18.54 0 0111.57-17.13 398.18 398.18 0 00-330.14 87.75 320.76 320.76 0 0026.5 98.45 329.38 329.38 0 0019 36.17c7.74-7.85 16-15.61 24.69-23.2 71.15-61.78 144.68-85.27 248.15-97.14zM1701.6 999c.13-.19.23-.39.34-.59-.11.2-.21.4-.34.59zM1662 1008.3h.59a21.25 21.25 0 013.39-.82 12.6 12.6 0 00-3.98.82z"
      transform="translate(-268.4 -198.79)"
    />
    <path
      class="white"
      d="M2025.25 992.92c-58.77-9.5-129-18.86-206-25.9l-.08.14c-.19.37-.39.74-.6 1.1-.12.2-.25.4-.38.6s-.21.34-.32.5-.3.45-.46.67-.16.23-.25.34c-.35.48-.73 1-1.12 1.4l-.1.12-.63.68-.26.27c-.22.22-.43.44-.65.64l-.08.07c-.42.4-.87.78-1.33 1.15l-.46.37-.57.41-.68.47-.42.28c-.37.24-.76.46-1.14.68l-.34.17c-.34.19-.69.36-1 .53l-.24.11a21.39 21.39 0 01-2.83 1.07h-.12a24.15 24.15 0 01-3.08.7c-.49.08-1 .13-1.48.18h-.24c-.51 0-1 .07-1.56.08l-86.36 1.11a8.2 8.2 0 00-8.09 8.32V991.07c0 .32-.06.46-.08.7s-.08.67-.14 1-.11.47-.16.71-.13.63-.22.93-.17.5-.25.75-.18.56-.29.83-.23.53-.35.8-.21.47-.33.7-.31.56-.48.84-.21.4-.34.59-.39.57-.6.85-.22.33-.34.49-.48.56-.72.83-.23.28-.36.41-.53.52-.8.77-.25.25-.39.37-.57.46-.86.68l-.43.34c-.29.2-.58.38-.88.57s-.34.23-.52.33-.56.29-.85.44l-.63.32c-.26.12-.53.21-.79.31s-.51.22-.77.31l-.7.2c-.31.09-.62.19-.94.26l-.59.11c-.36.07-.73.14-1.1.19a16.56 16.56 0 01-1.74.13 57.67 57.67 0 01-8.12.21l-13.25.34h-.29a21.25 21.25 0 00-3.39.82c146 .09 280.42 8.16 378.88 15.31q-7.8-15.39-16.31-30.59zM2089.53 1153.71a745.32 745.32 0 00-40.49-18.76c-140.11-59.88-270-56.73-398.68-22.92 4.5 18.89 9.35 62.35 27.62 61.92 15.78-.86 32.92.62 34.07 20.27 1.19 10.54 14.83 4.94 21.87 5.68a20.38 20.38 0 0121.37 19.9c-.54 18.23 7.78 49.73-18.93 51.63-11.61-.31-25.41.92-28.49 14.56-8.09 23.91-4.73 76.45 8.51 101.37 7.67 17.31 32.86 5.2 46 11.74 60.73-26.87 131-60 205-34.35 53.11 18.43 90.89 56.27 116.86 91.58 30.37-94.33 37.64-198.71 5.29-302.62zM423.08 1323.6a1786.19 1786.19 0 00211.5-63 170.79 170.79 0 01-17.88-17.39c-3.64-4.1-7.07-8.38-10.29-12.8a1747.17 1747.17 0 01-297.52 71.43 469.45 469.45 0 00-16.53 46.79l-.36 1.23c15.38-2.78 35.87-6.58 60-11.37 37.73-7.49 66.2-13.76 71.08-14.89z"
      transform="translate(-268.4 -198.79)"
    /></g><g id="Line">
    <path
      class="cyan"
      d="M1070.26 377.21a3.92 3.92 0 00.81-3.6 3.11 3.11 0 00-1.47-1.61c-1.25-.32-4 .94-8.25-.49a3.22 3.22 0 01-1.94-1.41c-.69-1.32.13-3 .79-4.55.44-1.06 1-2.4 1.46-4a11.71 11.71 0 00-.18-7.33c-3.08-8.69-4.92-11.42-8-20.1a4.19 4.19 0 00-4-2.15 3.25 3.25 0 00-2.71 4.59c2.85 8.82 4.46 11.69 7.32 20.5a3.74 3.74 0 010 2.36c-.75 2.15-2.27 6.58-3 9.37a9.34 9.34 0 00-.33 2.22 7.14 7.14 0 00.81 3.87 5.46 5.46 0 002.69 2.13c4.56 2 12.94 1.65 13.52 1.77a4.35 4.35 0 002.48-1.57zM1099.66 373.85c0-.45 0-1.42-.69-1.69-1.89-.73-6.83 4.31-11.17 7.54s-11.16 7-22.66 9.34a15.91 15.91 0 007.3 3.07c12.86 1.89 27.04-11.88 27.22-18.26zM1076.22 319.46c12.37-3.76 13.66-6.61 14-7.91a4.45 4.45 0 00-.74-3.63c-3.2-4.12-14.32-1.78-20.11-.56-7.66 1.62-14.82 3.13-16.64 7.81a6.2 6.2 0 001.26 6.71c3.53 3.26 11.37.88 22.23-2.42zM1077.29 330.74c-2.29.89-9.94 3.87-9.93 8.16 0 2.31 1.88 4.16 3.74 5.93 1.36 1.3 4.64 4.42 8.67 3.74a5.73 5.73 0 003.82-2.1c1.61-2.25 1.13-6.16-1.45-9.51 2.36-.91 5.66-2.29 9.52-4.21 3.19-1.58 4.78-2.38 4.71-2.86-.22-1.56-10.03-2.67-19.08.85z"
      transform="translate(-268.4 -198.79)"
    />
    <path
      class="cyan"
      d="M1040.69 348.72c-7.06.49-15.5 4.18-15.5 8.29 0 1.05.57 1.86 1.73 3.48.68 1 4.67 6.56 9.38 5.68a5 5 0 003.31-2c1.28-2 .73-5.36-1.59-8.16.59-.22 1.45-.56 2.45-1 2.19-1 7.88-3.55 7.62-5-.21-1.19-4.34-1.5-7.4-1.29zM1307.12 1040.65c.1 1.92 2 3.42 4.28 3.36l80.85-1.88c2.35-.05 4.17-1.73 4-3.7q-.55-8.58-1.09-17.14a3.48 3.48 0 00-1.84-2.73 4.75 4.75 0 00-2.42-.6l-80.64 1.65c-2.33 0-4.16 1.7-4.06 3.66l.2 4.12q.4 6.61.72 13.26zm11-10.09a5.7 5.7 0 012.53-4L1381 1025a5.3 5.3 0 014.16 4c.29 2.15-1.35 4.27-4 5.07l-59.9 1.57c-.26-.11-3.43-1.97-3.19-5.08zM1409.83 1104.68c.28 4.23 4.46 7.5 9.42 7.35l71.06-2.09c5.09-.15 9-3.84 8.8-8.19l-.65-11.1c-.24-4.22-4.36-7.5-9.29-7.41l-71.22 1.25c-5.17.09-9.22 3.83-8.92 8.25q.39 5.97.8 11.94zm14.75-11.82l58-1.36a4.61 4.61 0 014.65 4.67v.81a4.61 4.61 0 01-4.4 4.66l-57.95 1.92a4.59 4.59 0 01-4.68-4.39c0-.45 0-.91-.08-1.37a4.62 4.62 0 014.46-4.94zM1346.48 1127.21l-66.68 1.92c-4.47.13-8 3.34-8 7.23l.14 12.24c0 4 3.85 7.19 8.44 7.09l66.25-1.51c4.4-.1 7.92-3.19 8-7q.15-6.35.29-12.67c.15-4.11-3.73-7.44-8.44-7.3zm-5.61 18.26l-54 1.54a4.06 4.06 0 01-4.38-3.47c-.07-.93-.13-1.85-.2-2.78-.15-2.08 1.72-3.86 4.11-3.93l53.9-1.46a4.08 4.08 0 014.36 3.34c.11.9.21 1.8.31 2.7.23 2.13-1.64 3.99-4.1 4.06zM1601.08 1777.64a2.06 2.06 0 00-2.1-1.65l-262.14 11.21a2 2 0 00-1.32 3.53l4.07 3.87a2 2 0 001.5.56l258.91-10.94a2 2 0 001.92-2.45c-.29-1.38-.57-2.77-.84-4.13zM1159.87 1776.46l-38.3-.13c-1.16 0-2.09.68-2.06 1.51l.12 3.25c0 .82 1 1.46 2.1 1.44l38.19-.7c1.11 0 2-.68 2-1.48v-2.41c-.01-.82-.92-1.48-2.05-1.48zM1317.35 1771.73l-63 1.16a2.05 2.05 0 00-2 2.11c0 1.08.07 2.17.1 3.26a2.05 2.05 0 002.17 2l62.79-3.52a2 2 0 001.92-1.88l.08-.89a2.05 2.05 0 00-2.06-2.24zM1372 1333l-63 1.15a2 2 0 00-2 2.11l.1 3.26a2.06 2.06 0 002.16 2L1372 1338a2.06 2.06 0 001.93-1.88l.07-.88a2 2 0 00-2-2.24zM1261.34 1742.89a2.15 2.15 0 002 1.92l126.7-4.57a2 2 0 001.64-1.11l.1-.19c1-1.71 0-4-1.67-4l-127.43 1.66c-1.34 0-2.31 1.6-2 3.22zM1475 1389l-193.83 4.39c-2 0-3.46 1.65-2.91 3.26l1 3.1a3.14 3.14 0 003.15 1.87l192.61-7.3a3.32 3.32 0 002.46-1.14l.15-.19c1.44-1.7-.11-3.99-2.63-3.99zM1223.74 903.17a2.43 2.43 0 002.38 1.93l63.91-1.73 84.49-2.28a2.38 2.38 0 001.92-1.1l.12-.19a2.57 2.57 0 00-2-4l-77 .56-72.24.52a2.55 2.55 0 00-2.31 3.21c.24 1.01.48 2.05.73 3.08zM1163.3 1738l-42.89-.19a2 2 0 00-1.91 2.18l.24 4.24a1.94 1.94 0 002 1.91l41.78-1.77a1.9 1.9 0 001.69-1.27l.88-2.27a2 2 0 00-1.79-2.83zM1257.54 1692.81a2.27 2.27 0 00-2-2.43l-127.7.81a2.39 2.39 0 00-2.08 2.46l-.26 4c-.11 1.54.84 2.83 2 2.78l128-4.78a2.51 2.51 0 002.04-2.84zM1556.48 1395.33l71.87-2.44c2.1-.08 3.75-.77 3.73-1.57l-.06-2.42c0-.81-1.75-1.43-3.88-1.38l-72.11 1.62c-2.18 0-3.91.77-3.84 1.61l.3 3.24c.08.82 1.87 1.42 3.99 1.34zM1330.72 1065.83l-72.11 1.61c-2.18 0-3.92.78-3.84 1.61l.3 3.25c.07.81 1.86 1.41 4 1.34l71.87-2.45c2.09-.07 3.74-.76 3.72-1.56l-.06-2.42c-.03-.81-1.76-1.43-3.88-1.38zM1419.27 1541.32l-82.54 3.53a2.47 2.47 0 00-2.54 1.88l-.09.88c-.14 1.21 1.13 2.24 2.73 2.22l82.77-1.15c1.5 0 2.69-1 2.64-2.11l-.13-3.26c-.05-1.15-1.33-2.05-2.84-1.99z"
      transform="translate(-268.4 -198.79)"
    /><path
      class="cyan"
      d="M1731.68 1789.82l-29.1 1.66a171.66 171.66 0 01-11.46-151.62l41.05-.82a3.85 3.85 0 003.77-3.82q0-6.78.1-13.57l126.28-3.82a5.75 5.75 0 005.58-5.76q0-13.35-.07-26.69a5.75 5.75 0 00-5.88-5.74l-21.12.48a164.19 164.19 0 01-12-63.11 161.69 161.69 0 014.52-36.08l26.36-1.11a6 6 0 005.71-6q0-14.26-.07-28.54a6 6 0 00-6.13-5.94l-106.41 2.91-.36-23.8a5.93 5.93 0 00-6-5.83l-16.47.18-20.09.21c-11.55-23.16-30.71-70.83-18.94-126.14a169.26 169.26 0 019.33-29.9l32.88-2a7.25 7.25 0 006.81-7.47l-.77-24.1a7.25 7.25 0 00-7.55-7l-37.3 1.54q-.46-9.88-.95-19.78a8.17 8.17 0 00-8.33-7.77l-27.1.59a251 251 0 01-27.38-73.55 229 229 0 014.62-109.09c1.74-6 3.61-11.6 5.5-16.68l35.5-1.1a8.51 8.51 0 008.24-8.55l-.1-18.69 77.59-1 33.28-.43a14.14 14.14 0 00-.1-26.63l-4.46.11a64.76 64.76 0 01-7.39-56.88l11.54-.47c6.07-4.24 8.85-11.2 7.08-17.07a14.28 14.28 0 00-6.31-7.8l-458.29 2.39-102.53.54a346.44 346.44 0 0041.13-28c37.66-29.78 69.63-55.07 71.57-91.07 1.27-23.8-10.41-55.35-35.8-65.8-13.67-5.63-27.09-3.4-34.64-1.41 2.78-41.69 5.06-74.33 6.91-99.28 1.75-23.62 3.12-40.34 4.17-51.26a116.22 116.22 0 00.57-13.33c-.11-7.08-.54-35.1-15.1-56.58-16.63-24.53-45.46-31.35-76.14-38.6a216.1 216.1 0 00-35.69-5.34q-5.94-28.08-11.89-56.18c.23-1.68.43-3.41.59-5.2a40.11 40.11 0 0012.39-18.41 30.69 30.69 0 00-11.66-35.45 87.38 87.38 0 00-3.7-22.13c-5.74-18.85-18.77-38.35-34.12-42.78-2.36-.69-6.89-1.93-11.71 0-5.34 2.17-7.89 7-8.76 8.81-6.32-7.19-16.93-17-32.34-21.93C1013.32 197 957.33 238.65 959.19 257a18.38 18.38 0 005.23 10.77c5.23 4.78 12.5 4.43 15 4.19a35.57 35.57 0 00-14 6.54c-.92.71-13.81 10.93-12 20.16 1.61 8.44 15.44 15.95 33.72 13.59a284.8 284.8 0 0022.11 46.93c13.76 23.36 29.82 50.6 52.51 61a195.31 195.31 0 00-32.47 11.43c-10.31 4.69-20.26 9.21-28.72 16.28-7.56 6.3-19.34 19.28-30.36 76.55a536.83 536.83 0 00-8.92 73.83l-6.65 4.94-14.18-7.92a57.48 57.48 0 00-8.55-19.29 60.11 60.11 0 00-19.28-17.64 67 67 0 00-30.77-9.84c-5.81-.33-14.8-.73-17.85 4.41a8.34 8.34 0 00-.92 5.43c-13.55-5-17-5-17.49-4-.14.27-.22.92 3.54 5.23 3 3.48 5.74 6.16 7.69 8a19.33 19.33 0 000 10.47 19 19 0 003.74 7.07 17.62 17.62 0 002.15 16.16 779.2 779.2 0 01-8.3-1.92 113.93 113.93 0 00-11.8-2.23c-1.25-.17-6.42-.81-7.28.73a9.47 9.47 0 00-.48 2.65c-.22 1.7 4.25 3.64 4.25 3.64 3.15 1.36 28.12 13.15 62.69 29.43a14.5 14.5 0 00-1.62 5.31 17 17 0 00.63 5.76c1.25 4.28 9.19 12 21.81 18.83a33.15 33.15 0 001.95 5.56 31.42 31.42 0 002 3.67 33.54 33.54 0 0010.87 10.87c-6.16-2-15.94-5.06-27-7.62a196.6 196.6 0 00-23.16-4 47.81 47.81 0 00-17.09.86c-16 3.49-25.92 13.68-31.82 19.71-4.52 4.63-14 14.36-18.18 26.45a38.68 38.68 0 00-1.39 5.15c-7.46 38.65 51.19 81 85.23 105.54a396.53 396.53 0 0033.18 21.52l-7.94 8.47-369.76 5.74a20.7 20.7 0 00-17.83 10.67 89.6 89.6 0 00.06 87 20.68 20.68 0 0018 10.71l72.89.5c-12.47 15.39-42 56.24-45.83 115.63a196 196 0 008.39 70.48 223.42 223.42 0 0031.48 63.21 220.66 220.66 0 0017.5 21.64 12.36 12.36 0 009.22 4l11.87-.12h4.6c-7.59 8.89-37.8 46.29-36.82 102.47.69 39.78 16.68 69.58 28.66 86.55a147 147 0 0011.23 14.06l-54.11.52a10 10 0 00-9.87 10l.15 73.91.14 71.8-66.87-1.44a25.69 25.69 0 00-3.9 1.16c-49.9 19.19-54.89 186.65-10.64 205.14a22.89 22.89 0 004.12 1.29l552.78 41.62 86.9-6c0 .56 0 1.4.07 2.41.83 10.45 7.7 18.68 12.53 21.64l54.64 33.49a7.4 7.4 0 0011.15-5.44q1.77-14.25 3.53-28.5l29.61-.12a5.77 5.77 0 003.08-10.64l-31.25-18.58 477.24-32.57a3.86 3.86 0 003.59-3.83v-14.33a3.85 3.85 0 00-4.14-3.92zm-1117.92 15.84l-24.93-1.85a349 349 0 014.62-180.3l23.38.3a355 355 0 00-3.07 181.85zm1239.8-215.91a3 3 0 013.07 2.88q.21 6.09.41 12.17a3 3 0 01-2.91 3.09l-727.79 17.38a2.9 2.9 0 01-3-2.92l.06-8.36a2.89 2.89 0 012.81-2.87zm-24.42-8.4l-699.59 17.34c1.3-4.31 2.58-9.13 3.73-14.4l248.54-8.22a2.09 2.09 0 001.51-.73l2.25-2.7a2 2 0 00-1.62-3.36l-249 6.33a188 188 0 002.25-19l118.9-4.29a2 2 0 001.63-1.11l.11-.19c1-1.71 0-4-1.68-4l-118.61 1.54c.13-5.66 0-11.55-.43-17.67-.21-2.94-.5-5.81-.84-8.59l231.09-8.64c2.13-.08 3.72-1.39 3.5-2.88-.21-1.37-1.89-2.41-3.86-2.37l-232.08 4.72c-.67-3.89-1.44-7.6-2.27-11.1-.25-1-.5-2.08-.76-3.09l47.1-1.31 641.82-17.87a171 171 0 00-3.95 28.28l-351.48 7.93a2 2 0 00-1.79 2.26l.26 2.91a1.92 1.92 0 001.84 1.84l350.91-6c0 2.92.06 5.91.21 9a169.88 169.88 0 001.73 17l-298.56 7.41c-.91 0-1.62 1.06-1.54 2.25.07 1 .13 1.94.2 2.91a1.77 1.77 0 001.55 1.84l300-5.5a171.21 171.21 0 008.93 29.46zm18.86-132.17a3.21 3.21 0 013.3 3.21v13.51a3.21 3.21 0 01-3.13 3.22l-523.09 12.24-193.08 4.51a4.22 4.22 0 01-4.32-3.93c-.21-3-.43-6.07-.64-9.11a4.23 4.23 0 014.1-4.52l354.51-9.46zm-683.69-178.3a3.47 3.47 0 013.3-3.54l5.32-.27a3.48 3.48 0 013.66 3.44l.45 39.9 1.32 114.85a3.49 3.49 0 01-3.28 3.52l-4 .23a3.47 3.47 0 01-3.68-3.4l-2.24-110zm572.12 152.44a4.09 4.09 0 014.21 4.15q-.11 6.43-.2 12.86l-569.48 13.36a3.11 3.11 0 01-3.17-3l-.23-7.92a3.1 3.1 0 013-3.19zm-60.58-96.39l-259.67 3.51c-1.81 0-2.68 1.88-1.39 3l4 3.37a2.2 2.2 0 001.48.51l255.75-3.35c.06 1.4.13 2.81.22 4.23.36 5.53.94 10.85 1.69 15.94l-62.94 2.41a3.08 3.08 0 00-2.53 1.19l-1.25 2.1c-.74 1.23.69 2.56 2.74 2.54l65.26-.67a194.92 194.92 0 0017.66 51.9L1188.18 1428l-.57-50.2 329-10.91a2 2 0 002-1.69c.17-1 .33-1.91.5-2.86a2.05 2.05 0 00-2.07-2.41l-329.46 9.34-.63-56.12 190.82-7.23a3.32 3.32 0 002.46-1.14l.15-.19c1.4-1.74-.15-4-2.68-4l-187.91 4.25-2.94.07q-.06-6.37-.14-12.74l33.75-1.12 298.72-9.89c3.06-.1 5.33-1.42 5-2.91-.32-1.37-2.75-2.39-5.58-2.33l-277.87 5.9-54.11 1.15-.16-14.14 86.82-2.12 415.36-10.11a194.94 194.94 0 00-12.81 70.33zm48.2-99a3 3 0 013.07 2.87l.39 11a3 3 0 01-2.89 3.09l-558.46 14.7a3.14 3.14 0 01-3.23-3.16l.06-7.07a3.13 3.13 0 013-3.11zm-531.8-247.05a10.51 10.51 0 01-.39 1.74 214.4 214.4 0 00-5.36 9.62 217.86 217.86 0 00-24.54 89.25c-4 74.35 31.23 126.79 40.9 140.26 1.29 2.18 1.64 4.79.69 6.48-1.38 2.46-5.67 3.29-9.12.13-8.22-9.52-54.49-64.91-50.07-147.07a204.31 204.31 0 013.42-27.8 206.74 206.74 0 0119.51-56c.15-.3.31-.59.46-.88a201 201 0 0112.73-21c3.86-3.55 8.8-3 10.83-.09a7.61 7.61 0 01.92 5.34zm1.53 26q.45 18.5 1.06 37.26.78 24 1.81 48.48 2.28 53.26 5.66 104.53a217.82 217.82 0 01-26.58-102.47 214.64 214.64 0 015.1-47.92 217.82 217.82 0 0112.93-39.87zm10.44-2a3.53 3.53 0 013.64-3.6h3.44a3.56 3.56 0 013.62 3.31q.84 17.83 1.67 35.68 3.78 81.17 7.58 162.32a3.54 3.54 0 01-3.56 3.61l-3.81.07a3.56 3.56 0 01-3.7-3.32l-7.21-160.83zm470.68 195.3a5.75 5.75 0 015.95 5.55l.42 11.81-324.27 9.7-141.27 4.23a27.21 27.21 0 00-.41-15.39l179-6.19zm-52.64-191.74c-1.09 4.26-2.13 8.82-3.09 13.67l-205.42 4a1.76 1.76 0 00-1.12 3l3.14 3.36a1.53 1.53 0 001.17.51l201-3.77c-.83 4.92-1.54 10.08-2.1 15.49a3.11 3.11 0 00-2.1-.65l-82.55 3.53a2.45 2.45 0 00-2.53 1.87c0 .3-.06.59-.1.89-.13 1.21 1.14 2.24 2.74 2.22l82.77-1.16a3.18 3.18 0 001.18-.23 248.2 248.2 0 004.39 69.56c1.19 5.79 2.53 11.35 4 16.62l-56.29.52-135.64 1.23a3.33 3.33 0 00-2.48 1.07c-.06.06-.11.13-.16.19-1.46 1.69 0 4.05 2.56 4.06l115.73.71 78.14.47a2.69 2.69 0 00.57 0 253.45 253.45 0 0019.29 45.37l-224.92 7.16-185.7 5.92q-.53-10.26-1.07-20.51a5.55 5.55 0 001.37.13l233-8.71c2.12-.08 3.71-1.39 3.49-2.88-.2-1.37-1.88-2.41-3.85-2.37l-232.86 4.74a4.73 4.73 0 00-1.63.32l-3.3-63.28 144.66-3.9a2.38 2.38 0 001.92-1.1l.12-.19a2.58 2.58 0 00-2-4l-145.14 1.06-3.21-61.74h.15l62.79-3.53a2.06 2.06 0 001.93-1.87l.07-.89a2 2 0 00-2.08-2.22l-28.62.52-34.34.63a1.26 1.26 0 00-.28 0q-.87-16.62-1.73-33.24l403.07-9.39c-1.64 4.81-3.34 10.5-4.96 16.85zm42.43-26.28L1202.17 989v-.22a38.56 38.56 0 00.72-15.41c-.11-.72-.23-1.42-.36-2.06l3.34-.05 113.26-1.78 353.7-5.48.22 9.53a8.51 8.51 0 01-8.38 8.67zM1313 881.25l455.87-3.38a133.37 133.37 0 00-1 15.13l-303.89 7.59c-.92 0-1.62 1.07-1.54 2.26.06 1 .13 1.93.2 2.9s.74 1.86 1.55 1.84l303.87-5.59a128.33 128.33 0 001.6 13.88c.15.87.3 1.73.47 2.59a3.77 3.77 0 00-1.17-.19l-192.75 1.76a3.29 3.29 0 00-2.48 1.07l-.16.18c-1.46 1.7 0 4.06 2.56 4.07l193.87 1.2a3.34 3.34 0 001.82-.49c.76 3 1.59 5.79 2.45 8.41L1237 948.23l-240.14 6.15a125.35 125.35 0 01-3.4-12.38l262.24-8.7 60.51-2a2 2 0 002-1.69c.17-1 .33-1.91.5-2.86a2.05 2.05 0 00-2.07-2.41l-51.9 1.47-272.75 7.73c-.33-2.27-.61-4.61-.82-7a119.12 119.12 0 01-.37-13.46l191.88-7.26a3.32 3.32 0 002.46-1.14l.15-.19c1.4-1.74-.15-4-2.68-4l-191.3 4.34a123 123 0 014-21.16zm-338.32 45.23A152.65 152.65 0 00980 956a20.85 20.85 0 01-12.71-1.64c-19.32-9.92-20.15-58.35-1.64-68.72a19.69 19.69 0 0111.69-2 152.27 152.27 0 00-2.66 42.84zm-25.43-66.87a167.91 167.91 0 0138.56-20.51 170.41 170.41 0 0171.38-10.26 126.58 126.58 0 0018.2 25.83l-3 2.07zm176.81-3c8.42-3.46 17.35-6.85 26.77-10.08q8.82-3 17.24-5.54l8.32 15zm178.47-174.28a51.8 51.8 0 0117.64 11.48 48.77 48.77 0 019 14.17c2 4.32 6.08 13.54 6 25.32-.06 8.07-2.07 16.27-7.1 26-12.86 24.83-36.94 43.13-50.74 53.11a624 624 0 01-70.48 44.1l-16.91.51-10.7-18.67c11.3-4.66 23-10 35.11-16.09a501.06 501.06 0 0077.19-48.39 10.76 10.76 0 00-11.83-4.5 432.912 432.912 0 01-27.32 18.41c-56.12 34.81-112.35 52.07-159.55 60.69a54.18 54.18 0 01-10.18-8.57 55.31 55.31 0 01-12.31-21.75c5.21-4.72 12.56-11.26 21.54-18.84 15.81-13.34 33-25.19 59.89-45.92 30.13-23.27 46.48-33.18 62.33-42.65 55.89-33.37 76.7-32.74 88.42-28.36zm-243.08 33.13c-.11-2.88-.21-5.76-.32-8.64a443.86 443.86 0 0069.86.94c12.56-.82 85.79-6.2 110.55-35.2a102.42 102.42 0 008.83-12.18c3.35-5.56 6.41-12 13.23-35.08 1.54-5.18 3.58-12.26 5.85-20.77l-5.85 68.93c-1.17.54-3 1.4-5.29 2.47-14.58 6.91-44.39 21.82-99.63 59.53-9.75 6.65-23 15.89-38.68 27.31-1.12-1.25-2.27-2.5-3.43-3.74a240.4 240.4 0 00-55.12-43.52zm91.69-303.08c-15.73 24.62-39.9 33.62-54.14 26.2-1.89-1-7.9-4.48-12-14.47 1.74-.23 3.19-.51 4.27-.73 32.13-6.47 47.76-40.37 50.59-46.52a93.92 93.92 0 003.55-8.86q3.88 22.22 7.73 44.43zm-98.27-8.86c-8.08-5.88-19.34-16.14-36.44-47.94-1.94-3.6-4.06-7.69-6.29-12.21 3.61-.28 8.53-2.64 14.61-5.56 10.15-4.88 10.92-7.83 11-9.15a5.09 5.09 0 00-1.06-3.53c-3.22-3.8-12.46-.45-17.28 1.3-5.09 1.85-9.91 3.6-12.15 6.7-3-6.64-6.19-14-9.3-22.07a150.7 150.7 0 0088.39-38.23 79.47 79.47 0 0043.12 33.17 15 15 0 015-5.68 10.31 10.31 0 016.26-2c6.69.25 10.56 7.8 11.61 12.22 2 8.5-3.15 18.58-13.1 24.89a81.47 81.47 0 01-.68 14.85 84.52 84.52 0 01-10.75 30.72c-3.66 6.53-9.84 17.33-20.78 24.69a51.3 51.3 0 01-8.12 4.44 47.39 47.39 0 01-17 3.85c-4.33.15-13.5-.55-27.04-10.41zm-74.45 123.37c6.22-36.45 12.73-56 23.68-65.78a127.24 127.24 0 0121.16-14.71c3.88-2.1 7.1-3.5 10.14-4.84a310.45 310.45 0 0141.13-14.67c3.18 6.75 9.4 16.64 20.41 21.23 19.6 8.17 47.88-3.19 65.23-30.77a276.52 276.52 0 0131.59 4.93c27.39 5.91 53.48 11.55 68.31 31.17a73.37 73.37 0 0110 19.29 69.3 69.3 0 013.08 22.15 378.74 378.74 0 01-7.64 75.8c-7.09 35.59-16.57 59.59-16.57 59.59-7.45 18.84-11.33 28.43-19.08 36.61-6.88 7.26-22.12 20.22-76.92 27.39a433.15 433.15 0 01-94.16 1.84 74.79 74.79 0 01-.94-16.71 76.71 76.71 0 019.25-32.21c23.22-3.63 42.55-6.45 56.61-8.45 36.56-5.21 45.4-6 54.16-14.32 8.12-7.67 11.37-20.53 17.86-46.26.27-1 .44-1.78.59-2.48.71-3.33.76-6 6.47-39 3.18-18.33 5.28-29.65 1.69-31.26-1.86-.83-4.56 1.12-6.61 2.95-1.18 5.53-3.05 14.36-5.23 25.23-3.45 17.19-6.13 31.72-8.72 43.74-5.47 25.47-10.51 39.68-21.46 44a72.11 72.11 0 01-7.67 2.09 161.43 161.43 0 01-27.69 4.3Q1113.22 613 1097 597.33q-5.16-5-10.36-10.13-24.86-24.5-47.54-48.46l-9.38 7.23c-2.65-16.8-3-24.15-2.45-27.17a5 5 0 00-.52-3.58 4.68 4.68 0 00-5.34-1.66c-.34.15-1.83.88-2.59 4.16-1.82 7.81.17 31.39.52 35.44l-46.52 35.52c1.92-24.94 4.89-45.91 7.6-61.79zM870.83 555c.85-1.12 2.48-1.39 4.06-1.38 10.82 0 24.92 5.64 24.92 5.64 6.1 2.43 9.2 3.67 11.69 5.23a47.82 47.82 0 0111.9 10.77 48.58 48.58 0 017.69 14c-3.44-2.2-9.12-5.68-16.41-9.44-18.65-9.62-44.82-19.51-44.41-23.28a3.32 3.32 0 01.56-1.54zm51.54 37.54q13.3 6.79 26 13.7L931 617l-67.54-52.61q28.75 12.84 58.91 28.19zm-59.23-21.23l15.39 13.23a6.31 6.31 0 01-1.7.93c-4.1 1.48-9.77-1.37-12.32-5.7a12.62 12.62 0 01-1.37-8.42zm28.16 31.08a4.06 4.06 0 01-5.17 2.57c-1.89-.17-12.45-1.22-17.45-6.57-1.11-1.19-3-3.22-2.78-5.87a5.94 5.94 0 011.24-3 172.23 172.23 0 0019.46 7.42l2.41.73h-.06a4 4 0 012.35 4.76zm3.07 5.85a5 5 0 004.62-3.85 5.21 5.21 0 00-1.6-4.51L916.07 615zm41.13 59.16a90 90 0 0017.44 5.75c6.08 1.33 14.67 2.55 15 1.43.24-.9-5.06-2.73-16.61-7.59 0 0-4.26-1.78-11.23-5.47a264.87 264.87 0 01-23.65-14.22c-1.88-1.27-5.91-4.06-5.77-7.59a5.07 5.07 0 01.65-2.26c12.19 4.58 22.77 8.36 31.18 11.29 5 1.73 9.7 3.34 14.32 4.78 12.84 4 24.8 6.67 38.6 6.7 9.47 0 16.48-1.2 18.87-5.74 1.82-3.45.37-7.7-.37-9.85-2.33-6.82-7-8.78-9.93-12.63a12.36 12.36 0 01-2.41-5.32c-.18-.91-1.18-5.94 1.58-8.75a5 5 0 013-1.55c2.33-.2 4.27 1.86 4.89 2.49a76 76 0 007.89 6.75 188.35 188.35 0 0023.44 15.32 59.93 59.93 0 0013.13 4.93 97 97 0 00-8.41 48.41c-4.89 0-12.65 0-22.18-.45-33.54-1.38-51.48-2.3-69.84-12.12a87.82 87.82 0 01-19.59-14.31zm112.74 44.65l-31.71-7.93 31.39 1.46c.08 2.16.21 4.31.32 6.47zM913.06 819.14c-36.86-24.55-61.93-44.16-76.23-69.79-3.26-5.85-6.26-12.55-5.53-20.61.65-7.22 4.11-13.36 8.44-18.84a131.43 131.43 0 019.4-10.29c1.39-1.41 8.79-9.1 15.72-13 8.7-4.93 17.75-5.42 30.14-3.16 9.71 1.77 21.47 5.23 36.73 9.58 33.95 9.67 68.14 18.47 102 28.34 11.1 3.24 20.17 5.87 25.94 7.54 4.24 2.23 8.64 4.79 13.11 7.73a157.38 157.38 0 0136.85 34q-8.36 6.67-16.81 13.72-15.21 12.69-29.14 25.26c-16.77-9.14-29.85-17.47-38.56-23.29 0 0-49.92-33.35-85.63-50.58a19.51 19.51 0 00-6.41-1.89c-3.53-.37-7.53.28-12.31 2.59q32.54 18.5 66.54 39.53 32.94 20.42 63.08 40.77a234.49 234.49 0 00-37.07 3.4A236.89 236.89 0 00948 841.56c-14.34-8.87-26.22-16.62-34.94-22.42zm-249.28 413.45a12.41 12.41 0 01-9.21-4.13c-2.6-2.9-5.84-6.7-9.4-11.38a195.7 195.7 0 01-29.87-56.29 183.86 183.86 0 01-9.33-50.13c-3.44-75.74 40.52-126.08 49.33-135.77l313.23.82 198.56-4.51a222.63 222.63 0 00-16 29.47q-2 4.44-4 9.39a227.94 227.94 0 00-13.14 46.44 212.66 212.66 0 00-.8 66.76c8.27 56.31 36.79 94.18 50.37 110.09l-477.31-.7zm492.37 193c-6.62-9.39-31.27-46.71-23.74-95.38 0-.25.09-.5.13-.75a125.49 125.49 0 0120.5-50.78q.43 20.86.88 41.74 1.08 52.58 2.23 105.18zm-507-75.73c.15-56.53 33.22-92.78 40.41-100.31l459.08-3a4 4 0 014 4l.06 8.84a4 4 0 01-1 2.64c-9.36 10.8-26.07 33.41-31.22 66.16-9.15 58.13 25.44 101.69 33.57 111.18a4 4 0 011 2.42l.36 7.94a4 4 0 01-4 4.19l-460.62-1.63c-7-7.22-41.79-44.29-41.65-102.42zm426.67 477.53a7.17 7.17 0 01-4.51 1c-23.51-3.55-33.46-166.17.61-177.23a14 14 0 015.13-.62zm-451-217.64q-.17-37.32-.32-74.66l-.25-56.64a10 10 0 0110-10l460.23 1.2a593.67 593.67 0 00-2.86 35.93q-.45 9.08-.63 18.53a592.47 592.47 0 007.16 102.81zm472.53 216.83a2.21 2.21 0 01-2.26 2.19l-3.19-.09a2.21 2.21 0 01-2.15-2.21q.21-86.74.4-173.49a2.21 2.21 0 012.21-2.2h4a2.2 2.2 0 012.2 2.22zm7.89-322.17c.88-11.7 2.13-22.64 3.58-32.71a170.61 170.61 0 0111.41 31.38 166.5 166.5 0 014.59 26.88 171.43 171.43 0 01-15 85.74 478.56 478.56 0 01-5.95-71.59c-.07-14.03.45-27.29 1.38-39.69zM1267.07 1862a1.08 1.08 0 01-.57 2l-16.19-.72a9.21 9.21 0 00-9.51 8.4q-.75 7.56-1.51 15.12a2.62 2.62 0 01-4 2l-45.54-27.9a11.08 11.08 0 01-5.24-9.25q-.9-49.11-1.79-98.2a4.86 4.86 0 014.24-5c5.85-.66 12.19-1.14 19-1.31 5.87-.15 11.42 0 16.62.22a6.7 6.7 0 016.28 6.52l3 82.72a8.53 8.53 0 004.16 7zm-24.66-43.16l-2.21-67a12.82 12.82 0 00-9.44-12c-6.14-1.69-17-1.88-25.72-1.92-12-.06-19 1.24-26.38 3.89a11.89 11.89 0 00-7.93 11.43l1.28 69.25-59.89 3.9-2-148.1 327.69-10.87a2 2 0 002-1.69l.51-2.86a2.06 2.06 0 00-2.08-2.41l-328.18 9.3q-.12-9.48-.25-19l567-12.1a194.64 194.64 0 00-10.69 52.8l-357.38 13.74a2 2 0 00-1.76 2.29c.1 1 .21 1.93.31 2.9a1.9 1.9 0 001.87 1.8l356.63-11.69c0 3.51 0 7.09.15 10.77a192.74 192.74 0 004.4 33.5l-253.73 12.14a2.06 2.06 0 00-1.49.76l-2.22 2.73a2 2 0 001.67 3.34l257.88-10.37a194.89 194.89 0 0014.83 38.31z"
      transform="translate(-268.4 -198.79)"
    /></g></svg>
